<?xml version="1.0" encoding="utf-8"?>
<!-- Generator: Adobe Illustrator 16.0.3, SVG Export Plug-In . SVG Version: 6.00 Build 0)  -->
<!DOCTYPE svg PUBLIC "-//W3C//DTD SVG 1.1//EN" "http://www.w3.org/Graphics/SVG/1.1/DTD/svg11.dtd">
<svg version="1.1" id="Vrstva_1" xmlns="http://www.w3.org/2000/svg" xmlns:xlink="http://www.w3.org/1999/xlink" x="0px" y="0px"
	 width="75px" height="75px" viewBox="0 0 75 75" enable-background="new 0 0 75 75" xml:space="preserve">
<path fill="#D2D70F" d="M75,67.374C75,71.568,71.568,75,67.374,75H7.63C3.433,75,0,71.568,0,67.374V7.626C0,3.432,3.433,0,7.63,0
	h59.744C71.568,0,75,3.432,75,7.626V67.374"/>
<g>
	<path fill="#191919" d="M60.855,30.11l-5.398-11.779c-0.561-1.219-2.113-2.222-3.477-2.222H38.155c-1.35,0-1.998,1.002-1.43,2.222
		l5.409,11.779c0.565,1.219-0.073,2.222-1.418,2.222l-15.99,0.01c-3.693-8.726-4.944-11.001-7.835-11.05
		c-1.679,0.009-2.519,0.843-3.159,2.261l1.745,0.638c0.144-1.082,2.03-1.541,2.977-0.167c0,0,1.636,1.209,6.079,13.007
		c0.384,0.935,3.561,7.304,3.561,7.304c0.583,1.218,2.178,2.206,3.544,2.206l20.92,0.012c1.357,0,2.935-1,3.529-2.203l4.728-9.8
		C61.4,33.332,61.421,31.329,60.855,30.11"/>
	<path fill="#191919" d="M38.678,54.875c0,2.226-1.806,4.017-4.027,4.017c-2.216,0-4.019-1.791-4.019-4.017
		c0-2.232,1.803-4.029,4.019-4.029C36.872,50.846,38.678,52.643,38.678,54.875"/>
	<path fill="#191919" d="M53.616,54.875c0,2.226-1.795,4.017-4.01,4.017c-2.222,0-4.025-1.791-4.025-4.017
		c0-2.232,1.804-4.029,4.025-4.029C51.821,50.846,53.616,52.643,53.616,54.875"/>
</g>
</svg>
