<?xml version="1.0" encoding="utf-8"?>
<!-- Generator: Adobe Illustrator 16.0.3, SVG Export Plug-In . SVG Version: 6.00 Build 0)  -->
<!DOCTYPE svg PUBLIC "-//W3C//DTD SVG 1.1//EN" "http://www.w3.org/Graphics/SVG/1.1/DTD/svg11.dtd">
<svg version="1.1" id="Vrstva_1" xmlns="http://www.w3.org/2000/svg" xmlns:xlink="http://www.w3.org/1999/xlink" x="0px" y="0px"
	 width="75px" height="75px" viewBox="0 0 75 75" enable-background="new 0 0 75 75" xml:space="preserve">
<path fill="#FFAA1E" d="M75,67.374C75,71.568,71.568,75,67.374,75H7.63C3.433,75,0,71.568,0,67.374V7.626C0,3.432,3.433,0,7.63,0
	h59.744C71.568,0,75,3.432,75,7.626V67.374"/>
<path fill="#191919" d="M69.104,12.42l-0.826,8.762c-0.099,1.126-0.31,1.984-0.642,2.617c-0.395,0.748-1.074,1.145-1.971,1.145
	c-1.153,0-1.697-0.615-1.953-1.13c-0.305-0.607-0.517-1.478-0.639-2.66l-0.615-8.547c-0.117-1.667-0.172-2.879-0.172-3.618
	c0-1.141,0.336-2.053,1.006-2.714c0.664-0.661,1.541-0.997,2.604-0.997c1.331,0,2.243,0.461,2.72,1.37
	c0.42,0.797,0.621,1.883,0.621,3.318C69.238,10.764,69.195,11.587,69.104,12.42 M68.184,33.511c-0.682,0.61-1.492,0.92-2.404,0.92
	c-0.919,0-1.732-0.306-2.422-0.904c-0.711-0.617-1.07-1.477-1.07-2.557c0-0.949,0.336-1.769,1.003-2.436
	c0.667-0.667,1.494-1.006,2.456-1.006c0.957,0,1.789,0.338,2.468,1c0.682,0.667,1.024,1.49,1.024,2.441
	C69.238,32.034,68.885,32.891,68.184,33.511"/>
<g>
	<path fill-rule="evenodd" clip-rule="evenodd" fill="#191919" d="M27.471,26.725c0.178-0.467,0.42-0.456,0.709-0.843
		c-0.219-0.314-0.346-0.472-0.346-0.882c0-1.073,0.871-2.101,1.945-2.101c0.832,0,1.535,1.101,1.813,1.101H34v0.179
		c0-1.438-0.869-2.578-1.545-2.876c-0.539-0.24-0.812-0.275-0.933-0.59c-0.121-0.315-1.665-4.859-2.144-6.119
		C28.896,13.334,27.848,12,26.459,12c-1.387,0-6.252,0-6.252,0s-4.863,0-6.25,0c-1.389,0-2.465,1.334-2.945,2.593
		c-0.48,1.26-2.051,5.567-2.17,5.881c-0.121,0.314-0.545,0.469-1.088,0.708C7.078,21.481,6,22.74,6,24.179c0,0,0,5.828,0,6.728
		s0.854,0.875,0.854,0.875s0.175,0.002,0.813,0.002c0.637,0,0.737,0.748,0.737,0.748l0.048,1.914c0,0,0.058,1.962,2.058,1.962
		c2.002,0,2.111-1.961,2.111-1.961l0.02-2.617c0,0-0.004-1.831,0.803-1.831s6.764,0,6.764,0s3.754,0,5.703,0
		C26.443,29,27.168,27.513,27.471,26.725z M10.637,27.168c-1.074,0-1.945-0.871-1.945-1.945s0.871-1.944,1.945-1.944
		s1.945,0.87,1.945,1.944S11.711,27.168,10.637,27.168z M11.893,21c-0.262,0-0.688-0.265-0.492-0.795
		c0.195-0.532,1.355-3.687,1.58-4.263c0.227-0.575,0.688-0.809,1.127-0.809c0.436,0,6.1-0.001,6.1-0.001s5.664-0.004,6.1-0.004
		c0.439,0,0.902,0.225,1.129,0.8c0.223,0.576,1.385,3.748,1.58,4.279C29.211,20.736,28.787,21,28.523,21s-8.316,0-8.316,0
		S12.154,21,11.893,21z M24.459,29.332l-4.252-0.012l-4.252,0.012c0,0-0.789-0.059-0.789-0.847c0-0.788,0.828-0.842,0.828-0.842
		l4.213-0.004l4.215,0.004c0,0,0.828,0.054,0.828,0.842C25.25,29.272,24.459,29.332,24.459,29.332z"/>
	<path fill-rule="evenodd" clip-rule="evenodd" fill="#191919" d="M44.982,40.503c0.195-0.515,0.475-0.727,0.803-1.123
		c-0.27-0.333-0.439-0.635-0.439-1.098c0-1.074,0.873-1.931,1.945-1.931c0.969,0,1.766,0.648,1.914,1.648H53v-0.64
		c0-1.438-1.613-2.578-2.289-2.876c-0.541-0.24-1.183-0.276-1.306-0.59c-0.121-0.315-1.851-4.951-2.329-6.208
		C46.594,26.426,45.359,25,43.971,25s-6.25,0-6.25,0s-4.863,0-6.252,0c-1.391,0-2.465,1.426-2.943,2.686
		c-0.48,1.257-2.053,5.61-2.174,5.925c-0.119,0.314-0.801,0.49-1.342,0.73C24.334,34.639,23,35.922,23,37.36c0,0,0,5.827,0,6.728
		c0,0.9,1.107,0.875,1.107,0.875s0.306,0.003,0.942,0.003s0.802,0.748,0.802,0.748l0.079,1.914c0,0,0.075,1.962,2.075,1.962
		c2.002,0,2.119-1.961,2.119-1.961l0.025-2.208c0,0,0-1.42,0.805-1.42c0.807,0,6.766,0,6.766,0s3.799,0,5.738,0
		C43.988,43,44.688,41.272,44.982,40.503z M28.146,40.348c-1.072,0-1.943-0.87-1.943-1.944c0-1.074,0.871-1.945,1.943-1.945
		c1.076,0,1.947,0.871,1.947,1.945C30.094,39.478,29.223,40.348,28.146,40.348z M29.404,33c-0.26,0-0.688,0.326-0.492-0.205
		c0.195-0.533,1.355-3.393,1.582-3.968c0.225-0.575,0.686-0.662,1.125-0.662c0.438,0,6.102,0.072,6.102,0.072s5.662,0.034,6.1,0.034
		s0.902,0.242,1.127,0.817c0.225,0.576,1.385,3.167,1.582,3.698C46.725,33.318,46.297,33,46.035,33s-8.314,0-8.314,0
		S29.666,33,29.404,33z M41.971,42.512l-4.25-0.011l-4.252,0.011c0,0-0.791-0.059-0.791-0.846c0-0.789,0.83-0.842,0.83-0.842
		l4.213-0.003l4.213,0.003c0,0,0.83,0.054,0.83,0.842C42.764,42.453,41.971,42.512,41.971,42.512z"/>
	<path fill-rule="evenodd" clip-rule="evenodd" fill="#191919" d="M67.588,47.665c-0.543-0.24-0.867-0.276-0.988-0.59
		c-0.121-0.315-1.691-4.384-2.172-5.643c-0.48-1.258-1.555-2.118-2.945-2.118c-1.387,0-6.25,0-6.25,0s-4.863,0-6.252,0
		s-2.465,0.859-2.943,2.118c-0.48,1.259-2.051,5.327-2.172,5.643c-0.121,0.314-0.445,0.35-0.988,0.59
		c-0.674,0.298-1.652,1.438-1.652,2.876c0,0,0,5.828,0,6.728c0,0.9,0.752,0.875,0.752,0.875s0.127,0.003,0.764,0.003
		c0.639,0,0.713,0.748,0.713,0.748l0.035,1.914c0,0,0.053,1.962,2.053,1.962c2.002,0,2.107-1.96,2.107-1.96l0.018-1.728
		c0,0-0.004-0.941,0.801-0.941c0.809,0,6.766,0,6.766,0s5.957,0,6.764,0s0.803,0.941,0.803,0.941l0.018,1.728
		c0,0,0.104,1.96,2.105,1.96c2,0,2.055-1.962,2.055-1.962l0.035-1.914c0,0,0.074-0.748,0.711-0.748c0.639,0,0.764-0.003,0.764-0.003
		s0.752,0.025,0.752-0.875c0-0.9,0-6.728,0-6.728C69.238,49.103,68.26,47.963,67.588,47.665z M45.66,53.53
		c-1.074,0-1.943-0.871-1.943-1.945c0-1.074,0.869-1.944,1.943-1.944c1.076,0,1.945,0.871,1.945,1.944
		C47.605,52.659,46.736,53.53,45.66,53.53z M59.482,55.694l-4.25-0.012l-4.252,0.012c0,0-0.791-0.06-0.791-0.847
		s0.828-0.841,0.828-0.841l4.215-0.004l4.213,0.004c0,0,0.83,0.054,0.83,0.841S59.482,55.694,59.482,55.694z M55.232,47.296
		c0,0-8.053,0-8.316,0c-0.262,0-0.686-0.231-0.49-0.763c0.193-0.531,1.355-3.671,1.58-4.247c0.227-0.576,0.686-0.8,1.125-0.8
		c0.438,0,6.102,0.001,6.102,0.001s5.664-0.001,6.1-0.001c0.439,0,0.902,0.225,1.127,0.8c0.225,0.575,1.385,3.716,1.582,4.247
		c0.193,0.531-0.23,0.763-0.494,0.763C63.285,47.296,55.232,47.296,55.232,47.296z M64.803,53.53c-1.072,0-1.943-0.871-1.943-1.945
		c0-1.074,0.871-1.944,1.943-1.944c1.076,0,1.945,0.871,1.945,1.944C66.748,52.659,65.879,53.53,64.803,53.53z"/>
</g>
</svg>
