<?xml version="1.0" encoding="utf-8"?>
<!-- Generator: Adobe Illustrator 16.0.3, SVG Export Plug-In . SVG Version: 6.00 Build 0)  -->
<!DOCTYPE svg PUBLIC "-//W3C//DTD SVG 1.1//EN" "http://www.w3.org/Graphics/SVG/1.1/DTD/svg11.dtd">
<svg version="1.1" id="Vrstva_1" xmlns="http://www.w3.org/2000/svg" xmlns:xlink="http://www.w3.org/1999/xlink" x="0px" y="0px"
	 width="75px" height="75px" viewBox="0 0 75 75" enable-background="new 0 0 75 75" xml:space="preserve">
<g>
	<path fill="#191919" d="M74.924,67.389c-0.006,4.192-3.438,7.616-7.628,7.611L7.61,74.924C3.419,74.919-0.005,71.485,0,67.293
		L0.076,7.606C0.081,3.417,3.516-0.005,7.706,0l59.686,0.076C71.581,0.081,75.005,3.513,75,7.702L74.924,67.389"/>
	<path fill="#FFAA1E" d="M64.525,49.443H50.917c-0.354,0-0.69-0.046-1.026-0.113c-2.165-0.413-3.805-2.289-3.805-4.553V25.773
		h-9.628v18.962c0,0.022,0.008,0.042,0.008,0.073c0,2.556-2.101,4.634-4.696,4.634H16.63v8.179L7.257,44.915v-0.073l9.449-13.298
		l-0.076,8.626h9.775V21.197c0-0.026-0.003-0.041-0.003-0.063c0-2.562,2.099-4.64,4.693-4.64h19.61c0.018,0,0.026,0.006,0.038,0.006
		c0.018,0,0.029-0.006,0.044-0.006c2.592,0,4.7,2.078,4.7,4.64v19.035h9.037V49.443"/>
</g>
</svg>
