<?xml version="1.0" encoding="utf-8"?>
<!-- Generator: Adobe Illustrator 16.0.3, SVG Export Plug-In . SVG Version: 6.00 Build 0)  -->
<!DOCTYPE svg PUBLIC "-//W3C//DTD SVG 1.1//EN" "http://www.w3.org/Graphics/SVG/1.1/DTD/svg11.dtd">
<svg version="1.1" id="Vrstva_1" xmlns="http://www.w3.org/2000/svg" xmlns:xlink="http://www.w3.org/1999/xlink" x="0px" y="0px"
	 width="110px" height="75px" viewBox="0 0 110 75" enable-background="new 0 0 110 75" xml:space="preserve">
<g>
	<path fill="#CF003D" d="M102,0h-7H15H8C3.6,0,0,3.6,0,8v59c0,4.4,3.6,8,8,8h7h80h7c4.4,0,8-3.6,8-8V8C110,3.6,106.4,0,102,0z"/>
	<path fill-rule="evenodd" clip-rule="evenodd" fill="#FFFFFF" d="M43.866,31.075V12.527L37.822,12.5l-6.974,8.346l-6.634-8.298
		l-5.849-0.021L18.29,31.075H7.575L7.55,36.659L30.821,62.5L54.93,36.659v-5.584H43.866z M30.92,54.302l-16.716-17.74h9.841
		L24.02,21.334l6.729,8.076l6.902-8.296v15.447h10.254L30.92,54.302z"/>
	<g>
		<path fill="#FFFFFF" d="M102.382,45.806c-0.388,5.355-2.364,9.57-5.931,12.646s-8.266,4.614-14.099,4.614
			c-6.381,0-11.399-2.147-15.057-6.442s-5.485-10.191-5.485-17.688v-3.042c0-4.785,0.843-9,2.529-12.646
			c1.686-3.646,4.096-6.442,7.229-8.391s6.773-2.923,10.921-2.923c5.742,0,10.367,1.538,13.877,4.614
			c3.509,3.076,5.537,7.395,6.084,12.954H92.196c-0.251-3.213-1.146-5.542-2.684-6.989s-3.879-2.171-7.023-2.171
			c-3.418,0-5.977,1.226-7.674,3.675s-2.569,6.249-2.614,11.398v3.76c0,5.378,0.814,9.309,2.443,11.792
			c1.629,2.484,4.198,3.726,7.708,3.726c3.167,0,5.531-0.723,7.092-2.17s2.455-3.686,2.684-6.717H102.382z"/>
	</g>
</g>
</svg>
