<?xml version="1.0" encoding="utf-8"?>
<!-- Generator: Adobe Illustrator 16.0.3, SVG Export Plug-In . SVG Version: 6.00 Build 0)  -->
<!DOCTYPE svg PUBLIC "-//W3C//DTD SVG 1.1//EN" "http://www.w3.org/Graphics/SVG/1.1/DTD/svg11.dtd">
<svg version="1.1" id="Vrstva_1" xmlns="http://www.w3.org/2000/svg" xmlns:xlink="http://www.w3.org/1999/xlink" x="0px" y="0px"
	 width="75px" height="75px" viewBox="0 0 75 75" enable-background="new 0 0 75 75" xml:space="preserve">
<g>
	<path fill="#FFFFFF" d="M20.767,52.126c4.813,1.687,8.451,2.473,14.402,2.473c6.495,0,9.47-1.983,9.47-5.271
		c0-8.778-25.654-6.407-25.654-24.736c0-10.383,9.846-14.889,19.391-14.889c4.613,0,7.922,0.547,10.667,1.324l2.961-8.113
		C47.54,1.039,42.64,0,37.499,0C16.788,0,0,16.79,0,37.499c0,12.317,5.957,23.203,15.129,30.042L20.767,52.126z"/>
	<path fill="#FFFFFF" d="M57.939,6.086l-5.956,16.435c0,0-7.729-2.35-13.221-2.35c-5.429,0-7.105,2.055-7.105,4.348
		c0,7.171,26.123,7.171,26.123,24.355c0,11.828-11.31,16.413-22.461,16.413c-4.951,0-8.692-0.541-11.794-1.369l-2.615,7.18
		C25.925,73.572,31.539,75,37.5,75C58.212,75,75,58.208,75,37.499C75,24.339,68.202,12.773,57.939,6.086"/>
</g>
</svg>
