<?xml version="1.0" encoding="utf-8"?>
<!-- Generator: Adobe Illustrator 16.0.3, SVG Export Plug-In . SVG Version: 6.00 Build 0)  -->
<!DOCTYPE svg PUBLIC "-//W3C//DTD SVG 1.1//EN" "http://www.w3.org/Graphics/SVG/1.1/DTD/svg11.dtd">
<svg version="1.1" id="Vrstva_1" xmlns="http://www.w3.org/2000/svg" xmlns:xlink="http://www.w3.org/1999/xlink" x="0px" y="0px"
	 width="75px" height="75px" viewBox="0 0 75 75" enable-background="new 0 0 75 75" xml:space="preserve">
<path fill="#7A0200" d="M75,67.372C75,71.568,71.567,75,67.374,75H7.628C3.433,75,0,71.568,0,67.372V7.628C0,3.433,3.433,0,7.628,0
	h59.746C71.567,0,75,3.433,75,7.628V67.372"/>
<path fill="#FFFFFF" d="M51.55,54.842c2.045-2.008,0.646-5.477-2.211-5.532v-7.604c0-0.773-0.036-1.528-0.104-2.294
	c-0.331-3.631-0.666-7.257-1.009-10.88H27.33c-0.333,3.734-0.68,7.465-1.012,11.205c-0.067,0.755-0.107,1.522-0.107,2.293v7.281
	c-2.851,0.055-4.252,3.524-2.21,5.532c2.025,2.005,5.493,0.574,5.493-2.303h16.573C46.066,55.416,49.522,56.847,51.55,54.842
	 M56.847,42.129v15.948c0,4.474-5.946,2.983-8.572,2.983v5.788h-4.944v-5.788H32.222v5.788h-4.956v-5.788
	c-2.618,0-8.555,1.49-8.555-2.983v-16.01c0-1.017,0.044-2.037,0.132-3.05l1.469-16.288c0.173-1.946,1.019-2.707,2.974-2.707H33.53
	l3.054-8.488h-8.088l-1.91,1.917l-3.499-3.505l3.359-3.361h22.661l3.362,3.361l-3.5,3.505l-1.916-1.917h-5.207l-3.052,8.488h13.483
	c1.947,0,2.792,0.761,2.967,2.707l1.467,16.328C56.797,40.074,56.847,41.108,56.847,42.129"/>
</svg>
