<?xml version="1.0" encoding="utf-8"?>
<!-- Generator: Adobe Illustrator 16.0.3, SVG Export Plug-In . SVG Version: 6.00 Build 0)  -->
<!DOCTYPE svg PUBLIC "-//W3C//DTD SVG 1.1//EN" "http://www.w3.org/Graphics/SVG/1.1/DTD/svg11.dtd">
<svg version="1.1" id="Vrstva_1" xmlns="http://www.w3.org/2000/svg" xmlns:xlink="http://www.w3.org/1999/xlink" x="0px" y="0px"
	 width="75px" height="75px" viewBox="0 0 75 75" enable-background="new 0 0 75 75" xml:space="preserve">
<path fill="#FFAA1E" d="M74.962,67.419c-0.006,4.196-3.441,7.625-7.636,7.619L7.58,74.962c-4.195-0.005-7.623-3.443-7.618-7.639
	L0.038,7.577c0.005-4.194,3.442-7.62,7.638-7.615l59.746,0.076c4.194,0.005,7.621,3.44,7.616,7.634L74.962,67.419"/>
<path fill="#191919" d="M64.553,49.455H50.931c-0.354,0-0.691-0.045-1.027-0.113c-2.167-0.413-3.809-2.291-3.809-4.558V25.762
	h-9.638v18.981c0,0.022,0.008,0.042,0.008,0.073c0,2.559-2.104,4.638-4.701,4.638H16.608v8.188L7.227,44.922v-0.073l9.458-13.311
	l-0.076,8.634h9.786V21.181c0-0.026-0.004-0.041-0.004-0.063c0-2.564,2.102-4.645,4.699-4.645h19.63
	c0.018,0,0.026,0.006,0.038,0.006c0.018,0,0.029-0.006,0.044-0.006c2.595,0,4.705,2.081,4.705,4.645v19.054h9.046V49.455"/>
</svg>
