<?xml version="1.0" encoding="utf-8"?>
<!-- Generator: Adobe Illustrator 16.0.3, SVG Export Plug-In . SVG Version: 6.00 Build 0)  -->
<!DOCTYPE svg PUBLIC "-//W3C//DTD SVG 1.1//EN" "http://www.w3.org/Graphics/SVG/1.1/DTD/svg11.dtd">
<svg version="1.1" id="Vrstva_1" xmlns="http://www.w3.org/2000/svg" xmlns:xlink="http://www.w3.org/1999/xlink" x="0px" y="0px"
	 width="75px" height="75px" viewBox="0 0 75 75" enable-background="new 0 0 75 75" xml:space="preserve">
<path fill="#D2D70F" d="M75,67.374C75,71.568,71.568,75,67.374,75H7.63C3.433,75,0,71.568,0,67.374V7.626C0,3.432,3.433,0,7.63,0
	h59.744C71.568,0,75,3.432,75,7.626V67.374"/>
<g>
	<path fill="#191919" d="M54.996,36.126l-7.39-3.363l-3.941-10.416c-0.383-1-1.347-1.616-2.359-1.616l-5.065-0.012
		c-0.023,0-0.79,0.083-1.139,0.26l-10.118,5.063c-0.396,0.196-0.733,0.497-0.979,0.866l-5.063,7.589
		c-0.768,1.16-0.459,2.733,0.702,3.508c0.433,0.284,0.925,0.418,1.41,0.418c0.816,0,1.617-0.395,2.1-1.122l4.695-7.032l5.769-2.893
		c-0.105,0.533-2.754,11.577-2.779,11.827l-2.103,13.447l-7.176,9.576c-0.842,1.109-0.617,2.69,0.507,3.533
		c0.46,0.343,0.989,0.504,1.51,0.504c0.775,0,1.53-0.344,2.022-1.011l7.367-9.813c0.357-0.344,0.633-0.766,0.741-1.321l1.828-7.53
		l6.277,6.282l4.721,11.8c0.408,1.002,1.346,1.594,2.362,1.594c0.308,0,1.067-0.146,1.375-0.271c1.299-0.521,1.491-1.89,0.971-3.199
		l-5.067-12.653c-0.072-0.212-0.183-0.395-0.32-0.571l-5.819-8.859l1.804-8.876l1.394,3.685c0.236,0.632,0.706,1.14,1.322,1.425
		l8.343,3.79c0.348,0.162,0.704,0.222,1.05,0.222c0.968,0,1.88-0.543,2.311-1.483C56.824,38.203,56.272,36.708,54.996,36.126"/>
	<path fill="#191919" d="M41.677,19.314c2.91,0,5.288-2.368,5.288-5.291c0-2.921-2.378-5.288-5.288-5.288
		c-2.925,0-5.29,2.367-5.29,5.288C36.387,16.947,38.752,19.314,41.677,19.314"/>
</g>
</svg>
