<?xml version="1.0" encoding="utf-8"?>
<!-- Generator: Adobe Illustrator 16.0.3, SVG Export Plug-In . SVG Version: 6.00 Build 0)  -->
<!DOCTYPE svg PUBLIC "-//W3C//DTD SVG 1.1//EN" "http://www.w3.org/Graphics/SVG/1.1/DTD/svg11.dtd">
<svg version="1.1" id="Vrstva_1" xmlns="http://www.w3.org/2000/svg" xmlns:xlink="http://www.w3.org/1999/xlink" x="0px" y="0px"
	 width="75px" height="75px" viewBox="0 0 75 75" enable-background="new 0 0 75 75" xml:space="preserve">
<path fill="#DC301B" d="M75,67.374C75,71.568,71.568,75,67.374,75H7.63C3.433,75,0,71.568,0,67.374V7.626C0,3.432,3.433,0,7.63,0
	h59.744C71.568,0,75,3.432,75,7.626V67.374"/>
<g>
	<path fill="#FFFFFF" d="M31.662,38.417c0,6.004-4.258,10.609-9.899,10.609c-2.554,0.036-4.995-1.053-6.673-2.979v10.531H10V28.139
		h5.09v2.583c1.678-1.926,4.119-3.015,6.673-2.979C27.404,27.768,31.662,32.372,31.662,38.417z M26.416,38.417
		c0-3.421-2.427-5.958-5.646-5.958c-3.147,0.006-5.691,2.56-5.688,5.706c0,0.083,0.003,0.167,0.008,0.251
		c-0.166,3.128,2.235,5.796,5.364,5.962c3.127,0.165,5.797-2.235,5.962-5.365C26.427,38.815,26.427,38.616,26.416,38.417z"/>
	<path fill="#FFFFFF" d="M33.645,22.364c-0.035-2.142,1.675-3.906,3.815-3.941c2.143-0.035,3.906,1.673,3.941,3.815
		c0.034,2.142-1.675,3.907-3.815,3.941c-0.029,0.001-0.057,0.001-0.086,0.001C35.386,26.18,33.666,24.477,33.645,22.364z
		 M34.957,48.63V28.162c1.611,0.748,3.475,0.748,5.086,0V48.63H34.957z"/>
	<path fill="#FFFFFF" d="M59.91,19.82H65V48.63h-5.09v-2.543c-1.691,1.916-4.141,2.992-6.698,2.938
		c-5.601,0-9.898-4.604-9.898-10.609s4.32-10.649,9.898-10.649c2.55-0.047,4.988,1.027,6.676,2.938L59.91,19.82z M59.91,38.417
		c0-3.421-2.423-5.958-5.641-5.958c-3.213,0-5.647,2.537-5.647,5.958c-0.201,3.117,2.162,5.807,5.279,6.009s5.81-2.161,6.009-5.278
		C59.928,38.903,59.928,38.659,59.91,38.417z"/>
</g>
</svg>
