<?xml version="1.0" encoding="utf-8"?>
<!-- Generator: Adobe Illustrator 16.0.3, SVG Export Plug-In . SVG Version: 6.00 Build 0)  -->
<!DOCTYPE svg PUBLIC "-//W3C//DTD SVG 1.1//EN" "http://www.w3.org/Graphics/SVG/1.1/DTD/svg11.dtd">
<svg version="1.1" id="Vrstva_1" xmlns="http://www.w3.org/2000/svg" xmlns:xlink="http://www.w3.org/1999/xlink" x="0px" y="0px"
	 width="75px" height="75px" viewBox="0 0 75 75" enable-background="new 0 0 75 75" xml:space="preserve">
<g>
	<path fill="#FFFFFF" d="M37.497,75.043c6.07,0,10.999-4.929,10.999-10.999H26.498C26.498,70.115,31.43,75.043,37.497,75.043"/>
	<path fill="#FFFFFF" d="M68.777,46.814h0.162c-11.961-5.205-11.028-16.746-12.895-33.216C54.573,0.661,43.208,0.697,38.002,0.043
		h-0.912C31.9,0.697,20.542,0.661,19.067,13.598C17.25,29.529,18.08,40.844,7.318,46.279c-0.352,0.1-0.675,0.262-0.995,0.463
		c-0.043,0.014-0.093,0.043-0.154,0.072h0.047c-1.102,0.743-1.824,2.014-1.824,3.457v6.124c0,2.308,1.874,4.189,4.182,4.189h57.845
		c2.308,0,4.189-1.881,4.189-4.189v-6.124C70.608,48.828,69.879,47.557,68.777,46.814"/>
</g>
</svg>
