<?xml version="1.0" encoding="utf-8"?>
<!-- Generator: Adobe Illustrator 16.0.3, SVG Export Plug-In . SVG Version: 6.00 Build 0)  -->
<!DOCTYPE svg PUBLIC "-//W3C//DTD SVG 1.1//EN" "http://www.w3.org/Graphics/SVG/1.1/DTD/svg11.dtd">
<svg version="1.1" id="Vrstva_1" xmlns="http://www.w3.org/2000/svg" xmlns:xlink="http://www.w3.org/1999/xlink" x="0px" y="0px"
	 width="110px" height="75px" viewBox="0 0 110 75" enable-background="new 0 0 110 75" xml:space="preserve">
<g>
	<path fill="#F8B322" d="M102,0h-7H15H8C3.6,0,0,3.6,0,8v59c0,4.4,3.6,8,8,8h7h80h7c4.4,0,8-3.6,8-8V8C110,3.6,106.4,0,102,0z"/>
	<path fill-rule="evenodd" clip-rule="evenodd" fill="#191919" d="M44.943,31.075V12.527L38.898,12.5l-6.974,8.346l-6.633-8.298
		l-5.85-0.021l-0.076,18.548H8.651l-0.024,5.584L31.898,62.5l24.107-25.841v-5.584H44.943z M31.996,54.302l-16.715-17.74h9.84
		l-0.025-15.228l6.729,8.076l6.903-8.296v15.447h10.253L31.996,54.302z"/>
	<g>
		<path fill="#191919" d="M64.391,62.383V12.617h17.432c6.038,0,10.618,1.157,13.74,3.47s4.683,5.702,4.683,10.168
			c0,2.438-0.627,4.586-1.88,6.443s-2.996,3.219-5.229,4.084c2.552,0.639,4.563,1.926,6.033,3.862
			c1.47,1.938,2.204,4.307,2.204,7.109c0,4.785-1.526,8.408-4.58,10.869s-7.405,3.715-13.057,3.76H64.391z M74.645,33.467h7.588
			c5.173-0.091,7.759-2.153,7.759-6.187c0-2.256-0.655-3.879-1.965-4.87c-1.311-0.991-3.379-1.487-6.204-1.487h-7.178V33.467z
			 M74.645,40.713v13.433h8.784c2.415,0,4.301-0.575,5.657-1.726c1.355-1.15,2.033-2.74,2.033-4.769c0-4.557-2.358-6.87-7.075-6.938
			H74.645z"/>
	</g>
</g>
</svg>
