<?xml version="1.0" encoding="utf-8"?>
<!-- Generator: Adobe Illustrator 16.0.3, SVG Export Plug-In . SVG Version: 6.00 Build 0)  -->
<!DOCTYPE svg PUBLIC "-//W3C//DTD SVG 1.1//EN" "http://www.w3.org/Graphics/SVG/1.1/DTD/svg11.dtd">
<svg version="1.1" id="Vrstva_1" xmlns="http://www.w3.org/2000/svg" xmlns:xlink="http://www.w3.org/1999/xlink" x="0px" y="0px"
	 width="75px" height="75px" viewBox="0 0 75 75" enable-background="new 0 0 75 75" xml:space="preserve">
<path fill="#FFFFFF" d="M75,67.374C75,71.568,71.568,75,67.374,75H7.63C3.433,75,0,71.568,0,67.374V7.626C0,3.432,3.433,0,7.63,0
	h59.744C71.568,0,75,3.432,75,7.626V67.374"/>
<path fill="#191919" d="M63.138,37.081c0-13.043-9.742-23.771-22.352-25.395c1.143,0.94,1.893,2.367,1.893,3.969
	c0,2.863-2.32,5.178-5.194,5.178c-2.848,0-5.179-2.315-5.179-5.178c0-1.602,0.744-3.028,1.887-3.969
	c-12.584,1.623-22.33,12.351-22.33,25.395c0,14.149,11.479,25.653,25.622,25.653C51.654,62.733,63.138,51.23,63.138,37.081
	 M47.396,54.992c0,0.496-0.14,0.713-0.657,0.713c-0.584,0-3.953-0.217-10.314-0.217c-4.248,0-7.085,0.217-7.886,0.217
	c-0.362,0-0.579-0.135-0.579-0.713v-1.478c0-0.434,0.217-0.568,0.739-0.568h2.698c0.779,0,1.313-0.3,1.379-1.478
	c0.145-2.191,0.145-4.465,0.145-6.501l-0.145-10.232c0-2.046-0.434-3.503-3.514-4.62c-0.796-0.289-0.873-0.579-0.873-1.013v-0.816
	c0-0.217,0.149-0.362,0.816-0.568l10.883-3.514c0.812-0.29,1.473-0.444,1.979-0.444c0.589,0,0.806,0.372,0.718,0.878
	c-0.129,1.24-0.129,5.85-0.129,12.289v7.824c0,2.842,0,5.488,0.063,6.294c0.154,1.385,0.512,1.902,1.317,1.902h2.646
	c0.574,0,0.714,0.217,0.714,0.662V54.992z"/>
</svg>
