<?xml version="1.0" encoding="utf-8"?>
<!-- Generator: Adobe Illustrator 16.0.3, SVG Export Plug-In . SVG Version: 6.00 Build 0)  -->
<!DOCTYPE svg PUBLIC "-//W3C//DTD SVG 1.1//EN" "http://www.w3.org/Graphics/SVG/1.1/DTD/svg11.dtd">
<svg version="1.1" id="Vrstva_1" xmlns="http://www.w3.org/2000/svg" xmlns:xlink="http://www.w3.org/1999/xlink" x="0px" y="0px"
	 width="75px" height="75px" viewBox="0 0 75 75" enable-background="new 0 0 75 75" xml:space="preserve">
<path fill="#0A1432" d="M13.564,52.411l5.352,5.378l19.939-20.004L18.916,17.789l-5.352,5.381l8.717,8.885
	c0.891,0.93,0.484,1.935-0.797,1.935H0v7.593h21.484c1.281,0,1.688,1.011,0.797,1.945L13.564,52.411z"/>
<path fill="#0A1432" d="M8,75h4h55c4.42,0,8-3.582,8-8V8c0-4.418-3.58-8-8-8H12H8.002C3.581,0,0,3.581,0,7.999V20h12v-8h21h30v51H33
	H12v-8H0v12C0,71.42,3.582,75,8,75z"/>
</svg>
