<?xml version="1.0" encoding="UTF-8" standalone="no"?>
<!-- Generator: Adobe Illustrator 16.0.3, SVG Export Plug-In . SVG Version: 6.00 Build 0)  -->

<svg
   xmlns:dc="http://purl.org/dc/elements/1.1/"
   xmlns:cc="http://creativecommons.org/ns#"
   xmlns:rdf="http://www.w3.org/1999/02/22-rdf-syntax-ns#"
   xmlns:svg="http://www.w3.org/2000/svg"
   xmlns="http://www.w3.org/2000/svg"
   xmlns:xlink="http://www.w3.org/1999/xlink"
   xmlns:sodipodi="http://sodipodi.sourceforge.net/DTD/sodipodi-0.dtd"
   xmlns:inkscape="http://www.inkscape.org/namespaces/inkscape"
   version="1.1"
   id="Vrstva_1"
   x="0px"
   y="0px"
   width="75px"
   height="75px"
   viewBox="0 0 75 75"
   enable-background="new 0 0 75 75"
   xml:space="preserve"
   sodipodi:docname="LCD-piktogramy_verze-LCD-5-26normal.svg"
   inkscape:version="0.92.4 (5da689c313, 2019-01-14)"><metadata
   id="metadata29"><rdf:RDF><cc:Work
       rdf:about=""><dc:format>image/svg+xml</dc:format><dc:type
         rdf:resource="http://purl.org/dc/dcmitype/StillImage" /></cc:Work></rdf:RDF></metadata><defs
   id="defs27">
	<defs
   id="defs9">
		<rect
   height="75"
   width="75"
   id="SVGID_1_" />
	</defs>
	<clipPath
   id="SVGID_2_">
		<use
   id="use11"
   overflow="visible"
   xlink:href="#SVGID_1_" />
	</clipPath>
	
	
	
</defs><sodipodi:namedview
   pagecolor="#ffffff"
   bordercolor="#666666"
   borderopacity="1"
   objecttolerance="10"
   gridtolerance="10"
   guidetolerance="10"
   inkscape:pageopacity="0"
   inkscape:pageshadow="2"
   inkscape:window-width="1920"
   inkscape:window-height="1017"
   id="namedview25"
   showgrid="false"
   inkscape:zoom="8.9001173"
   inkscape:cx="15.931077"
   inkscape:cy="33.071633"
   inkscape:window-x="-8"
   inkscape:window-y="-8"
   inkscape:window-maximized="1"
   inkscape:current-layer="Vrstva_1" />
<line
   fill="#DC2828"
   x1="7.63"
   y1="0"
   x2="67.374"
   y2="0"
   id="line2" />
<line
   fill="#DC2828"
   x1="0"
   y1="67.374"
   x2="0"
   y2="7.626"
   id="line4" />
<path
   d="M 75,67.374 C 75,71.568 71.568,75 67.374,75 H 7.6300001 C 3.4329999,75 -7.5000002e-8,71.568 -7.5000002e-8,67.374 V 7.6260001 C -7.5000002e-8,3.4320001 3.4329999,3.5e-8 7.6300001,3.5e-8 H 67.374 C 71.568,3.5e-8 75,3.4320001 75,7.6260001 V 67.374"
   id="path6"
   inkscape:connector-curvature="0"
   style="fill:#dc2828" />
<path
   style="fill:#1d1d1b"
   inkscape:connector-curvature="0"
   id="path14"
   d="M 59.703,61.805"
   clip-path="url(#SVGID_2_)" /><path
   style="fill:#1d1d1b"
   inkscape:connector-curvature="0"
   id="path16"
   d="M 59.703,61.805"
   clip-path="url(#SVGID_2_)" /><path
   style="fill:#ffffff"
   inkscape:connector-curvature="0"
   id="path18"
   d="M 55.354,61.574 44.098,50.317 44.945,61.573 H 55.354 Z M 62.411,25.958 H 42.265 l 0.82,10.907 17.21,17.21 z M 39.447,55.695 h -27.41 v 1.906 c 0,2.177 1.781,3.958 3.958,3.958 h 19.494 c 2.177,0 3.958,-1.781 3.958,-3.958 z M 12.037,39.187 h 20.93 L 20.369,26.589 c -4.894,2.091 -8.332,6.938 -8.332,12.598 m 0,6.019 h 26.948 l -3.24,-3.241 H 12.037 Z m 27.873,5.251 c 0,-1.366 -1.107,-2.474 -2.474,-2.474 H 14.048 c -1.366,0 -2.474,1.107 -2.474,2.474 0,1.367 1.107,2.474 2.474,2.474 h 23.389 c 1.366,0 2.473,-1.108 2.473,-2.474 M 63.691,19.477 H 54.017 L 58.419,8.007 55.395,6.846 50.546,19.477 h -9.562 l -0.247,3.704 h 23.2 z"
   clip-path="url(#SVGID_2_)" />
<rect
   x="-4.097"
   y="35.879"
   transform="matrix(-0.7071 -0.7071 0.7071 -0.7071 37.5 90.5326)"
   fill="#191919"
   width="83.194"
   height="3.241"
   id="rect22" />
</svg>