<?xml version="1.0" encoding="utf-8"?>
<!-- Generator: Adobe Illustrator 16.0.3, SVG Export Plug-In . SVG Version: 6.00 Build 0)  -->
<!DOCTYPE svg PUBLIC "-//W3C//DTD SVG 1.1//EN" "http://www.w3.org/Graphics/SVG/1.1/DTD/svg11.dtd">
<svg version="1.1" id="Vrstva_1" xmlns="http://www.w3.org/2000/svg" xmlns:xlink="http://www.w3.org/1999/xlink" x="0px" y="0px"
	 width="75px" height="75px" viewBox="0 0 75 75" enable-background="new 0 0 75 75" xml:space="preserve">
<path fill="#9BCBEA" d="M75,67.418c0,4.194-3.432,7.625-7.627,7.625H7.628C3.432,75.043,0,71.612,0,67.418V7.67
	c0-4.195,3.432-7.627,7.628-7.627h59.745C71.568,0.043,75,3.475,75,7.67V67.418"/>
<path fill-rule="evenodd" clip-rule="evenodd" fill="#FFFFFF" d="M9.209,45.022c-4.1-0.009,1.924-8.328,9.796-8.291l12.891,0.045
	l20.458-20.465l5.395-0.045l-13.03,20.569l10.256,0.091l7.896-8.023l5.831-0.006l-8.661,12.595l-5.487,2.841l-12.749,0.098
	l5.917,9.232l-4.755,0.004l-11.581-8.684L9.209,45.022"/>
</svg>
