<?xml version="1.0" encoding="utf-8"?>
<!-- Generator: Adobe Illustrator 16.0.3, SVG Export Plug-In . SVG Version: 6.00 Build 0)  -->
<!DOCTYPE svg PUBLIC "-//W3C//DTD SVG 1.1//EN" "http://www.w3.org/Graphics/SVG/1.1/DTD/svg11.dtd">
<svg version="1.1" id="Vrstva_1" xmlns="http://www.w3.org/2000/svg" xmlns:xlink="http://www.w3.org/1999/xlink" x="0px" y="0px"
	 width="75px" height="75px" viewBox="0 0 75 75" enable-background="new 0 0 75 75" xml:space="preserve">
<path fill="#0078A0" d="M75,67.374C75,71.569,71.568,75,67.373,75H7.624C3.43,75,0,71.569,0,67.374V7.625C0,3.432,3.43,0,7.624,0
	h59.749C71.568,0,75,3.432,75,7.625V67.374"/>
<path fill="#FFFFFF" d="M54.356,50.805c2.299-2.282,0.716-6.201-2.515-6.25V21.022H23.728v23.532
	c-3.238,0.049-4.823,3.99-2.501,6.26c2.307,2.27,6.212,0.632,6.212-2.602h20.744C48.114,51.469,52.059,53.085,54.356,50.805
	 M60.332,14.75v49.649h-9.58v-6.548H24.917v6.548h-9.691V14.75c0-2.374,0.989-3.372,3.383-3.372h38.347
	C59.347,11.378,60.332,12.376,60.332,14.75"/>
</svg>
