<?xml version="1.0" encoding="utf-8"?>
<!-- Generator: Adobe Illustrator 16.0.3, SVG Export Plug-In . SVG Version: 6.00 Build 0)  -->
<!DOCTYPE svg PUBLIC "-//W3C//DTD SVG 1.1//EN" "http://www.w3.org/Graphics/SVG/1.1/DTD/svg11.dtd">
<svg version="1.1" id="Vrstva_1" xmlns="http://www.w3.org/2000/svg" xmlns:xlink="http://www.w3.org/1999/xlink" x="0px" y="0px"
	 width="75px" height="75px" viewBox="0 0 75 75" enable-background="new 0 0 75 75" xml:space="preserve">
<path fill="#00A4A7" d="M75,67.375C75,71.567,71.568,75,67.375,75H7.627C3.432,75,0,71.567,0,67.375V7.627C0,3.433,3.432,0,7.627,0
	h59.748C71.568,0,75,3.433,75,7.627V67.375"/>
<path fill="#FFFFFF" d="M60.462,53.311c-7.555,2.519-15.122,5.044-22.681,7.567c-7.565-2.523-15.122-5.049-22.683-7.567
	c0.816-2.47,1.633-4.926,2.443-7.387c4.311,1.459,8.615,2.911,12.929,4.369c1.875,0.646,2.905-0.106,2.905-2.09V25.488
	c-6.584-4.364-3.487-14.625,4.407-14.625c7.898,0,10.991,10.262,4.41,14.625v22.715c0,1.983,1.034,2.735,2.909,2.09
	c4.297-1.458,8.611-2.91,12.92-4.369C58.838,48.384,59.65,50.841,60.462,53.311"/>
</svg>
