<?xml version="1.0" encoding="utf-8"?>
<!-- Generator: Adobe Illustrator 16.0.3, SVG Export Plug-In . SVG Version: 6.00 Build 0)  -->
<!DOCTYPE svg PUBLIC "-//W3C//DTD SVG 1.1//EN" "http://www.w3.org/Graphics/SVG/1.1/DTD/svg11.dtd">
<svg version="1.1" id="Vrstva_1" xmlns="http://www.w3.org/2000/svg" xmlns:xlink="http://www.w3.org/1999/xlink" x="0px" y="0px"
	 width="75px" height="75px" viewBox="0 0 75 75" enable-background="new 0 0 75 75" xml:space="preserve">
<path fill="#C9D022" d="M75,67.375C75,71.567,71.566,75,67.373,75H7.627C3.434,75,0,71.567,0,67.375V7.627C0,3.433,3.434,0,7.627,0
	h59.745C71.566,0,75,3.433,75,7.627V67.375"/>
<path fill-rule="evenodd" clip-rule="evenodd" fill="#FFFFFF" d="M56.457,18.03h6.656c0.638,0,1.159,0.576,1.159,1.278v9.205
	c0,0.673-0.521,1.25-1.159,1.25h-6.656c-0.668,0-1.184-0.577-1.184-1.25v-9.205C55.272,18.606,55.788,18.03,56.457,18.03
	 M12.964,31.06h6.658c0.635,0,1.154,0.577,1.154,1.277v9.206c0,0.673-0.519,1.251-1.154,1.251h-6.658
	c-0.667,0-1.186-0.578-1.186-1.251v-9.206C11.778,31.637,12.296,31.06,12.964,31.06 M23.911,28.089h6.658
	c0.637,0,1.154,0.578,1.154,1.253v9.201c0,0.705-0.519,1.282-1.154,1.282h-6.658c-0.666,0-1.185-0.577-1.185-1.282v-9.201
	C22.726,28.667,23.245,28.089,23.911,28.089 M34.624,24.86h6.655c0.636,0,1.183,0.545,1.183,1.249v9.207
	c0,0.701-0.546,1.249-1.183,1.249h-6.655c-0.637,0-1.187-0.547-1.187-1.249v-9.207C33.437,25.405,33.986,24.86,34.624,24.86
	 M45.539,21.444h6.652c0.638,0,1.157,0.58,1.157,1.251v9.204c0,0.704-0.519,1.28-1.157,1.28h-6.652c-0.666,0-1.183-0.576-1.183-1.28
	v-9.204C44.356,22.024,44.873,21.444,45.539,21.444 M66.874,17.475c0-1.581-0.925-2.053-2.225-2.323l-8.733,0.157L11.378,28.691
	c-1.603,0.513-1.844,1.871-1.828,3.408v24.25l57.303-17.13L66.874,17.475z"/>
</svg>
