<?xml version="1.0" encoding="utf-8"?>
<!-- Generator: Adobe Illustrator 16.0.3, SVG Export Plug-In . SVG Version: 6.00 Build 0)  -->
<!DOCTYPE svg PUBLIC "-//W3C//DTD SVG 1.1//EN" "http://www.w3.org/Graphics/SVG/1.1/DTD/svg11.dtd">
<svg version="1.1" id="Vrstva_1" xmlns="http://www.w3.org/2000/svg" xmlns:xlink="http://www.w3.org/1999/xlink" x="0px" y="0px"
	 width="75px" height="75px" viewBox="0 0 75 75" enable-background="new 0 0 75 75" xml:space="preserve">
<path fill="#DC2828" d="M75,67.374C75,71.568,71.568,75,67.374,75H7.63C3.433,75,0,71.568,0,67.374V7.626C0,3.432,3.433,0,7.63,0
	h59.744C71.568,0,75,3.432,75,7.626V67.374"/>
<g>
	<path fill="#FFFFFF" d="M42.575,17.035H32.343v5.644h10.232V17.035z M32.849,13.916h9.373c0.1,0.025,0.199,0.059,0.302,0.081
		c1.985,0.384,2.976,1.587,2.976,3.599v4.717v0.388h7.74v0.461v37.535c0,0.129-0.012,0.258-0.016,0.391H21.843
		c-0.004-0.125-0.016-0.24-0.016-0.362V23.14v-0.454h7.667v-0.395c0-1.65,0-3.296,0-4.946c0.007-1.484,0.761-2.58,2.163-3.101
		C32.041,14.101,32.45,14.022,32.849,13.916"/>
	<path fill="#FFFFFF" d="M9.001,55.843V27.802c0.021-0.078,0.051-0.162,0.066-0.244c0.398-2.532,2.429-4.606,4.979-4.85
		c1.603-0.151,3.23-0.048,4.84-0.063c0.008,0,0.015,0.018,0.029,0.033v38.325c-1.561,0-3.104,0.066-4.64-0.019
		c-2.536-0.14-4.544-1.894-5.112-4.34C9.104,56.378,9.052,56.113,9.001,55.843"/>
	<path fill="#FFFFFF" d="M65.999,27.806v28.041c-0.021,0.093-0.051,0.188-0.066,0.281c-0.398,2.783-2.625,4.798-5.438,4.876
		c-1.428,0.044-2.859,0.011-4.289,0.011c-0.04,0-0.077-0.015-0.133-0.026V22.652c0.078-0.007,0.137-0.022,0.203-0.022
		c1.385,0.004,2.772-0.048,4.156,0.019c2.223,0.103,3.869,1.196,4.898,3.156C65.655,26.417,65.781,27.134,65.999,27.806"/>
</g>
</svg>
