<?xml version="1.0" encoding="utf-8"?>
<!-- Generator: Adobe Illustrator 16.0.3, SVG Export Plug-In . SVG Version: 6.00 Build 0)  -->
<!DOCTYPE svg PUBLIC "-//W3C//DTD SVG 1.1//EN" "http://www.w3.org/Graphics/SVG/1.1/DTD/svg11.dtd">
<svg version="1.1" id="Vrstva_1" xmlns="http://www.w3.org/2000/svg" xmlns:xlink="http://www.w3.org/1999/xlink" x="0px" y="0px"
	 width="75px" height="75px" viewBox="0 0 75 75" enable-background="new 0 0 75 75" xml:space="preserve">
<path fill="#FFFFFF" d="M75,67.374C75,71.568,71.568,75,67.374,75H7.629C3.433,75,0,71.568,0,67.374V7.626C0,3.432,3.433,0,7.629,0
	h59.744C71.568,0,75,3.432,75,7.626V67.374"/>
<g>
	<path fill="#09003E" d="M36.112,42.939c-2.73-8.702,1.877-18.152,10.543-22.969c-1.652,0.166-3.323,0.5-4.982,1.02
		C30.084,24.625,23.273,35.806,26.46,45.968c3.186,10.162,15.16,15.451,26.749,11.817c1.659-0.518,3.22-1.197,4.666-2.004
		C48.017,56.771,38.84,51.649,36.112,42.939"/>
	<polygon fill="#09003E" points="20.5,14.106 22.272,17.706 26.244,18.281 23.37,21.081 24.049,25.035 20.5,23.168 16.949,25.035 
		17.626,21.081 14.756,18.281 18.723,17.706 	"/>
	<polygon fill="#09003E" points="17.145,49.724 18.544,52.556 21.668,53.008 19.409,55.216 19.943,58.328 17.145,56.859 
		14.349,58.328 14.882,55.216 12.62,53.008 15.748,52.556 	"/>
	<polygon fill="#09003E" points="60.306,23.996 62.359,25.759 64.975,25.068 63.933,27.562 65.402,29.836 62.706,29.617 
		60.994,31.712 60.37,29.082 57.846,28.104 60.157,26.697 	"/>
</g>
</svg>
