<?xml version="1.0" encoding="utf-8"?>
<!-- Generator: Adobe Illustrator 16.0.3, SVG Export Plug-In . SVG Version: 6.00 Build 0)  -->
<!DOCTYPE svg PUBLIC "-//W3C//DTD SVG 1.1//EN" "http://www.w3.org/Graphics/SVG/1.1/DTD/svg11.dtd">
<svg version="1.1" id="Vrstva_1" xmlns="http://www.w3.org/2000/svg" xmlns:xlink="http://www.w3.org/1999/xlink" x="0px" y="0px"
	 width="75px" height="75px" viewBox="0 0 75 75" enable-background="new 0 0 75 75" xml:space="preserve">
<g>
	<path fill="#191919" d="M37.496,75.043c6.07,0,11-4.929,11-10.999H26.498C26.498,70.115,31.43,75.043,37.496,75.043"/>
	<path fill="#191919" d="M68.777,46.814h0.162c-11.961-5.205-11.028-16.746-12.895-33.216C54.572,0.661,43.207,0.697,38.002,0.043
		h-0.911C31.9,0.697,20.543,0.661,19.066,13.598C17.25,29.529,18.08,40.844,7.318,46.279c-0.353,0.1-0.676,0.262-0.995,0.463
		c-0.043,0.014-0.093,0.043-0.154,0.072h0.047c-1.103,0.743-1.823,2.014-1.823,3.457v6.124c0,2.308,1.873,4.189,4.182,4.189h57.845
		c2.308,0,4.188-1.881,4.188-4.189v-6.124C70.607,48.828,69.879,47.557,68.777,46.814"/>
</g>
</svg>
