<?xml version="1.0" encoding="utf-8"?>
<!-- Generator: Adobe Illustrator 16.0.3, SVG Export Plug-In . SVG Version: 6.00 Build 0)  -->
<!DOCTYPE svg PUBLIC "-//W3C//DTD SVG 1.1//EN" "http://www.w3.org/Graphics/SVG/1.1/DTD/svg11.dtd">
<svg version="1.1" id="Vrstva_1" xmlns="http://www.w3.org/2000/svg" xmlns:xlink="http://www.w3.org/1999/xlink" x="0px" y="0px"
	 width="110px" height="75px" viewBox="0 0 110 75" enable-background="new 0 0 110 75" xml:space="preserve">
<g>
	<path fill="#FFAA1E" d="M102,0h-7H15H8C3.6,0,0,3.6,0,8v59c0,4.4,3.6,8,8,8h7h80h7c4.4,0,8-3.6,8-8V8C110,3.6,106.4,0,102,0z"/>
	<g>
		<path fill="#191919" d="M36.402,54.563h-7.031L15.684,32.109v22.453H8.652V20.438h7.031l13.711,22.5v-22.5h7.008V54.563z"/>
		<path fill="#191919" d="M62.23,47.531H49.902l-2.344,7.031h-7.477l12.703-34.125h6.516l12.773,34.125h-7.477L62.23,47.531z
			 M51.801,41.836h8.531l-4.289-12.773L51.801,41.836z"/>
		<path fill="#191919" d="M75.262,54.563V20.438h10.5c3,0,5.684,0.676,8.051,2.027s4.215,3.273,5.543,5.766s1.992,5.324,1.992,8.496
			v1.57c0,3.172-0.652,5.992-1.957,8.461s-3.145,4.383-5.52,5.742s-5.055,2.047-8.039,2.063H75.262z M82.293,26.133v22.781h3.398
			c2.75,0,4.852-0.898,6.305-2.695s2.195-4.367,2.227-7.711v-1.805c0-3.469-0.719-6.098-2.156-7.887s-3.539-2.684-6.305-2.684
			H82.293z"/>
	</g>
</g>
</svg>
