<?xml version="1.0" encoding="utf-8"?>
<!-- Generator: Adobe Illustrator 16.0.3, SVG Export Plug-In . SVG Version: 6.00 Build 0)  -->
<!DOCTYPE svg PUBLIC "-//W3C//DTD SVG 1.1//EN" "http://www.w3.org/Graphics/SVG/1.1/DTD/svg11.dtd">
<svg version="1.1" id="Vrstva_1" xmlns="http://www.w3.org/2000/svg" xmlns:xlink="http://www.w3.org/1999/xlink" x="0px" y="0px"
	 width="75px" height="75px" viewBox="0 0 75 75" enable-background="new 0 0 75 75" xml:space="preserve">
<path fill="#80166F" d="M75,67.374C75,71.569,71.568,75,67.373,75H7.624C3.43,75,0,71.569,0,67.374V7.625C0,3.432,3.43,0,7.624,0
	h59.749C71.568,0,75,3.432,75,7.625V67.374"/>
<path fill="#FFFFFF" d="M52.645,53.833c-2.103,2.083-5.703,0.605-5.647-2.366H28.052c0,2.944-3.564,4.448-5.674,2.375
	c-2.119-2.075-0.681-5.669,2.29-5.72V26.621H50.35v21.501C53.293,48.174,54.736,51.748,52.645,53.833 M58.104,66.25V20.905
	c0-2.177-0.895-3.085-3.089-3.085h-9.502l3.382-9.07h-5.779l-3.381,9.07h-4.092h-2.33l3.387-9.07h-5.776l-3.379,9.07h-7.562
	c-2.18,0-3.086,0.908-3.086,3.085V66.25h8.855v-5.979h23.599v5.979H58.104z"/>
</svg>
