<?xml version="1.0" encoding="utf-8"?>
<!-- Generator: Adobe Illustrator 16.0.3, SVG Export Plug-In . SVG Version: 6.00 Build 0)  -->
<!DOCTYPE svg PUBLIC "-//W3C//DTD SVG 1.1//EN" "http://www.w3.org/Graphics/SVG/1.1/DTD/svg11.dtd">
<svg version="1.1" id="Vrstva_1" xmlns="http://www.w3.org/2000/svg" xmlns:xlink="http://www.w3.org/1999/xlink" x="0px" y="0px"
	 width="110px" height="75px" viewBox="0 0 110 75" enable-background="new 0 0 110 75" xml:space="preserve">
<g>
	<path fill="#00A562" d="M102,0h-7H15H8C3.6,0,0,3.6,0,8v59c0,4.4,3.6,8,8,8h7h80h7c4.4,0,8-3.6,8-8V8C110,3.6,106.4,0,102,0z"/>
	<path fill-rule="evenodd" clip-rule="evenodd" fill="#FFFFFF" d="M44.209,31.075V12.527L38.164,12.5l-6.974,8.346l-6.633-8.298
		l-5.85-0.021l-0.076,18.548H7.917l-0.024,5.584L31.164,62.5l24.107-25.841v-5.584H44.209z M31.262,54.302l-16.715-17.74h9.84
		l-0.025-15.228l6.729,8.076l6.903-8.296v15.447h10.253L31.262,54.302z"/>
	<g>
		<path fill="#FFFFFF" d="M87.752,52.129H69.773l-3.418,10.254H55.452l18.525-49.766h9.502l18.628,49.766H91.204L87.752,52.129z
			 M72.542,43.823h12.441l-6.255-18.628L72.542,43.823z"/>
	</g>
</g>
</svg>
