<?xml version="1.0" encoding="utf-8"?>
<!-- Generator: Adobe Illustrator 16.0.3, SVG Export Plug-In . SVG Version: 6.00 Build 0)  -->
<!DOCTYPE svg PUBLIC "-//W3C//DTD SVG 1.1//EN" "http://www.w3.org/Graphics/SVG/1.1/DTD/svg11.dtd">
<svg version="1.1" id="Vrstva_1" xmlns="http://www.w3.org/2000/svg" xmlns:xlink="http://www.w3.org/1999/xlink" x="0px" y="0px"
	 width="110px" height="75px" viewBox="0 0 110 75" enable-background="new 0 0 110 75" xml:space="preserve">
<g>
	<path fill="#008CBE" d="M102,0h-7H15H8C3.6,0,0,3.6,0,8v59c0,4.4,3.6,8,8,8h7h80h7c4.4,0,8-3.6,8-8V8C110,3.6,106.4,0,102,0z"/>
	<path fill-rule="evenodd" clip-rule="evenodd" fill="#FFFFFF" d="M44.413,31.075V12.527L38.369,12.5l-6.974,8.346l-6.634-8.298
		l-5.849-0.021l-0.076,18.548H8.122l-0.025,5.584L31.368,62.5l24.108-25.841v-5.584H44.413z M31.467,54.302l-16.716-17.74h9.841
		l-0.025-15.228l6.729,8.076l6.902-8.296v15.447h10.254L31.467,54.302z"/>
	<g>
		<path fill="#FFFFFF" d="M63.861,62.383V12.617h15.313c4.375,0,8.288,0.986,11.74,2.957s6.146,4.773,8.084,8.408
			c1.937,3.635,2.905,7.765,2.905,12.39v2.29c0,4.626-0.952,8.739-2.854,12.339c-1.902,3.601-4.586,6.392-8.049,8.374
			c-3.464,1.982-7.372,2.985-11.724,3.008H63.861z M74.115,20.923v33.223h4.956c4.01,0,7.075-1.31,9.194-3.931
			c2.119-2.62,3.201-6.368,3.247-11.245v-2.632c0-5.059-1.049-8.892-3.145-11.501c-2.097-2.609-5.161-3.914-9.194-3.914H74.115z"/>
	</g>
</g>
</svg>
