<?xml version="1.0" encoding="utf-8"?>
<!-- Generator: Adobe Illustrator 16.0.3, SVG Export Plug-In . SVG Version: 6.00 Build 0)  -->
<!DOCTYPE svg PUBLIC "-//W3C//DTD SVG 1.1//EN" "http://www.w3.org/Graphics/SVG/1.1/DTD/svg11.dtd">
<svg version="1.1" id="Vrstva_1" xmlns="http://www.w3.org/2000/svg" xmlns:xlink="http://www.w3.org/1999/xlink" x="0px" y="0px"
	 width="75px" height="75px" viewBox="0 0 75 75" enable-background="new 0 0 75 75" xml:space="preserve">
<path fill="#D2D70F" d="M75,67.374C75,71.568,71.568,75,67.374,75H7.63C3.433,75,0,71.568,0,67.374V7.626C0,3.432,3.433,0,7.63,0
	h59.744C71.568,0,75,3.432,75,7.626V67.374"/>
<g>
	<path fill="#191919" d="M50.12,57.648c-0.463-1.3-0.904-2.513-1.383-3.86c-0.123-0.378-0.619-0.341-0.757,0.034
		c-1.866,5.271-6.915,9.024-12.816,9.024c-7.512,0-13.616-6.098-13.616-13.628c0-3.873,1.617-7.365,4.221-9.842
		c0.486-0.45,0.434-1.206,0.434-1.206l-0.255-3.135c0,0-0.091-0.904-0.866-0.36c-4.595,3.196-7.604,8.517-7.604,14.543
		c0,9.783,7.913,17.704,17.688,17.704c6.221,0,11.65-3.262,14.797-8.098C50.085,58.621,50.27,58.163,50.12,57.648"/>
	<path fill="#191919" d="M35.331,12.699c0,3.646-1.978,6.75-4.836,6.75c-2.857,0-4.824-3-4.824-6.75c0-2.843,1.967-4.62,4.824-4.62
		C33.354,8.079,35.331,9.856,35.331,12.699"/>
	<path fill="#191919" d="M57.522,61.661c0,1.225-0.991,2.212-2.209,2.212c-0.91,0-1.664-0.527-2.021-1.292
		c0,0-4.012-11.085-5.253-14.777c-3.125,0.171-14.506,1.129-14.606,1.129c-2.823,0.239-5.276-1.859-5.518-4.667l-1.039-13.453
		l-0.462-6.336c-0.159-2.075,1.153-3.089,2.546-3.555c0.735-0.245,2.116-0.492,3.81,0.274c1.967,0.904,2.81,2.878,3.201,5.035
		c0.214,1.552,0.68,5.243,0.68,5.243s11.559,0.033,11.581,0.04c0.939,0.059,1.666,0.825,1.666,1.772c0,0.863-0.608,1.58-1.411,1.736
		c-0.042,0.012-11.487,0.821-11.487,0.821l0.372,5.634l12.115-0.091c1.479-0.1,2.849,0.824,3.263,2.238
		C52.749,43.624,57.522,61.417,57.522,61.661"/>
</g>
</svg>
