<?xml version="1.0" encoding="utf-8"?>
<!-- Generator: Adobe Illustrator 16.0.3, SVG Export Plug-In . SVG Version: 6.00 Build 0)  -->
<!DOCTYPE svg PUBLIC "-//W3C//DTD SVG 1.1//EN" "http://www.w3.org/Graphics/SVG/1.1/DTD/svg11.dtd">
<svg version="1.1" id="Vrstva_1" xmlns="http://www.w3.org/2000/svg" xmlns:xlink="http://www.w3.org/1999/xlink" x="0px" y="0px"
	 width="75px" height="75px" viewBox="0 0 75 75" enable-background="new 0 0 75 75" xml:space="preserve">
<g>
	<path fill="#8FBC19" d="M53.586,63.181c-0.59-1.657-1.152-3.204-1.763-4.92c-0.157-0.482-0.788-0.435-0.964,0.043
		c-2.38,6.718-8.814,11.502-16.336,11.502c-9.574,0-17.355-7.772-17.355-17.371c0-4.937,2.062-9.388,5.379-12.544
		c0.62-0.573,0.553-1.537,0.553-1.537l-0.324-3.995c0,0-0.116-1.152-1.104-0.459c-5.855,4.074-9.691,10.855-9.691,18.536
		C11.979,64.904,22.065,75,34.523,75c7.929,0,14.85-4.158,18.859-10.321C53.542,64.421,53.777,63.836,53.586,63.181"/>
	<path fill="#8FBC19" d="M34.736,5.889c0,4.647-2.521,8.603-6.164,8.603c-3.642,0-6.148-3.823-6.148-8.603
		C22.424,2.266,24.931,0,28.572,0C32.215,0,34.736,2.266,34.736,5.889"/>
	<path fill="#8FBC19" d="M63.021,68.294c0,1.562-1.263,2.82-2.814,2.82c-1.16,0-2.122-0.672-2.578-1.647
		c0,0-5.112-14.13-6.694-18.835c-3.983,0.218-18.489,1.44-18.618,1.44c-3.597,0.304-6.724-2.371-7.032-5.949l-1.324-17.146
		l-0.588-8.076c-0.204-2.645,1.47-3.938,3.244-4.531c0.938-0.312,2.697-0.628,4.856,0.349c2.507,1.152,3.58,3.668,4.079,6.418
		c0.272,1.978,0.866,6.683,0.866,6.683s14.733,0.042,14.762,0.051c1.197,0.075,2.124,1.051,2.124,2.258
		c0,1.1-0.775,2.013-1.799,2.213c-0.055,0.015-14.642,1.046-14.642,1.046l0.474,7.182l15.441-0.116
		c1.885-0.127,3.631,1.049,4.16,2.852C56.938,45.306,63.021,67.984,63.021,68.294"/>
</g>
</svg>
