<?xml version="1.0" encoding="utf-8"?>
<!-- Generator: Adobe Illustrator 16.0.3, SVG Export Plug-In . SVG Version: 6.00 Build 0)  -->
<!DOCTYPE svg PUBLIC "-//W3C//DTD SVG 1.1//EN" "http://www.w3.org/Graphics/SVG/1.1/DTD/svg11.dtd">
<svg version="1.1" id="Vrstva_1" xmlns="http://www.w3.org/2000/svg" xmlns:xlink="http://www.w3.org/1999/xlink" x="0px" y="0px"
	 width="75px" height="75px" viewBox="0 0 75 75" enable-background="new 0 0 75 75" xml:space="preserve">
<path d="M75,67.375C75,71.567,71.568,75,67.375,75H7.627C3.432,75,0,71.567,0,67.375V7.627C0,3.433,3.432,0,7.627,0h59.748
	C71.568,0,75,3.433,75,7.627V67.375"/>
<g>
	<path fill-rule="evenodd" clip-rule="evenodd" fill="#FFFFFF" d="M50.127,31.075V12.527L44.082,12.5l-6.974,8.346l-6.633-8.298
		l-5.85-0.021L24.55,31.075H13.835l-0.024,5.584L37.082,62.5l24.107-25.841v-5.584H50.127z M37.18,54.302l-16.715-17.74h9.84
		l-0.025-15.228l6.729,8.076l6.903-8.296v15.447h10.253L37.18,54.302z"/>
</g>
</svg>
