<?xml version="1.0" encoding="utf-8"?>
<!-- Generator: Adobe Illustrator 16.0.3, SVG Export Plug-In . SVG Version: 6.00 Build 0)  -->
<!DOCTYPE svg PUBLIC "-//W3C//DTD SVG 1.1//EN" "http://www.w3.org/Graphics/SVG/1.1/DTD/svg11.dtd">
<svg version="1.1" id="Vrstva_1" xmlns="http://www.w3.org/2000/svg" xmlns:xlink="http://www.w3.org/1999/xlink" x="0px" y="0px"
	 width="75px" height="75px" viewBox="0 0 75 75" enable-background="new 0 0 75 75" xml:space="preserve">
<path fill="#FFAA1E" d="M75,67.374C75,71.568,71.568,75,67.374,75H7.63C3.433,75,0,71.568,0,67.374V7.626C0,3.432,3.433,0,7.63,0
	h59.744C71.568,0,75,3.432,75,7.626V67.374"/>
<path fill="none" stroke="#191919" stroke-width="2" stroke-miterlimit="10" d="M8,37"/>
<path fill="#191919" d="M67.184,51.284c0.069-0.139,0.137-0.279,0.203-0.419c0.133-0.284,0.263-0.57,0.389-0.858
	c0.107-0.247,0.213-0.495,0.315-0.745c0.043-0.106,0.092-0.209,0.134-0.316c0.043-0.109,0.079-0.22,0.121-0.33
	c0.113-0.295,0.223-0.593,0.328-0.893c0.072-0.208,0.144-0.416,0.212-0.625c0.093-0.284,0.183-0.569,0.268-0.855
	c0.076-0.255,0.148-0.511,0.218-0.768c0.062-0.225,0.12-0.45,0.177-0.676c0.085-0.344,0.165-0.688,0.239-1.033
	c0.028-0.135,0.057-0.27,0.084-0.405c0.092-0.457,0.174-0.915,0.246-1.374c0.004-0.025,0.008-0.051,0.012-0.077
	c0.662-4.275,0.458-8.625-0.611-12.838c-0.02-0.078-0.036-0.156-0.057-0.233c-0.09-0.343-0.19-0.684-0.291-1.025
	c-0.057-0.193-0.11-0.387-0.171-0.578c-0.078-0.247-0.166-0.492-0.25-0.738c-0.093-0.269-0.183-0.539-0.281-0.804
	c-0.081-0.218-0.171-0.434-0.257-0.651c-0.109-0.274-0.216-0.549-0.332-0.82c-0.021-0.049-0.039-0.098-0.06-0.147
	c-0.093-0.214-0.196-0.42-0.293-0.631c-0.099-0.214-0.194-0.43-0.298-0.642c-0.175-0.361-0.359-0.715-0.547-1.066
	c-0.049-0.093-0.097-0.187-0.146-0.279c-2.032-3.736-4.721-6.932-7.856-9.512c-0.013-0.011-0.026-0.021-0.039-0.032
	c-0.351-0.287-0.705-0.566-1.066-0.838c-0.108-0.083-0.218-0.163-0.327-0.244c-0.266-0.195-0.534-0.387-0.806-0.573
	c-0.22-0.152-0.442-0.301-0.666-0.447c-0.165-0.107-0.329-0.214-0.495-0.318c-0.34-0.214-0.683-0.42-1.03-0.622
	c-0.056-0.032-0.11-0.064-0.165-0.096c-3.959-2.264-8.433-3.72-13.203-4.142c-0.063-0.006-0.128-0.009-0.191-0.015
	c-0.436-0.036-0.871-0.067-1.311-0.085c-0.201-0.009-0.403-0.01-0.605-0.016C38.516,4.514,38.26,4.5,38,4.5v0.007
	C33.678,4.5,29.287,5.355,25.075,7.181c-1.267,0.549-1.849,2.021-1.3,3.288c0.55,1.267,2.023,1.846,3.288,1.3
	c3.76-1.63,7.688-2.344,11.54-2.253c0.192,0.004,0.385,0.007,0.575,0.015c0.351,0.016,0.7,0.04,1.05,0.068
	c0.074,0.006,0.15,0.01,0.225,0.017c3.928,0.359,7.731,1.56,11.143,3.496c0.057,0.032,0.114,0.065,0.171,0.098
	c0.284,0.164,0.563,0.335,0.843,0.509c0.148,0.094,0.297,0.189,0.444,0.286c0.182,0.119,0.362,0.24,0.541,0.363
	c0.236,0.164,0.471,0.329,0.701,0.499c0.086,0.063,0.172,0.127,0.258,0.192c0.312,0.235,0.619,0.475,0.92,0.723
	c0.005,0.004,0.011,0.008,0.016,0.013c2.698,2.229,4.964,4.962,6.655,8.054c0.043,0.08,0.084,0.162,0.127,0.242
	c0.158,0.296,0.313,0.594,0.459,0.896c0.09,0.184,0.174,0.372,0.26,0.559c0.098,0.213,0.197,0.425,0.29,0.642
	c0.101,0.235,0.193,0.473,0.288,0.71c0.07,0.179,0.145,0.355,0.211,0.536c0.085,0.228,0.161,0.457,0.24,0.687
	c0.07,0.207,0.145,0.412,0.211,0.622c0.051,0.16,0.094,0.32,0.142,0.48c0.086,0.292,0.173,0.583,0.25,0.879
	c0.016,0.06,0.028,0.121,0.044,0.181C65.209,32.431,65.5,34.682,65.5,37c0,1.417-0.108,2.81-0.316,4.169
	c-0.001,0.01-0.003,0.021-0.004,0.031c-0.063,0.403-0.136,0.802-0.215,1.198c-0.021,0.103-0.042,0.205-0.064,0.308
	c-0.064,0.305-0.135,0.608-0.21,0.909c-0.045,0.18-0.091,0.359-0.14,0.538c-0.063,0.229-0.127,0.458-0.195,0.685
	c-0.068,0.23-0.141,0.459-0.215,0.688c-0.063,0.189-0.126,0.377-0.191,0.564c-0.085,0.24-0.173,0.48-0.265,0.719
	c-0.075,0.196-0.151,0.391-0.231,0.584c-0.081,0.2-0.165,0.397-0.251,0.594c-0.111,0.255-0.225,0.508-0.344,0.759
	c-0.052,0.109-0.104,0.218-0.157,0.326c-2.703,5.509-7.194,9.987-12.713,12.672c-0.152,0.073-0.308,0.143-0.462,0.213
	C46.018,63.585,42.115,64.5,38,64.5c-5.359,0-10.586-1.594-15.035-4.501l9.025-1.068l-0.297-2.484l-14.91,1.767l2.846,14.741
	l2.457-0.472l-1.563-8.09C25.716,67.703,31.787,69.5,38,69.5c4.572,0,8.924-0.954,12.873-2.665c0.018-0.007,0.035-0.009,0.052-0.016
	c0.24-0.104,0.474-0.219,0.71-0.329c0.177-0.082,0.355-0.16,0.53-0.245c6.185-2.989,11.173-7.773,14.404-13.762
	c0.001-0.003,0.003-0.006,0.005-0.009C66.785,52.083,66.988,51.686,67.184,51.284z"/>
<path fill="#191919" d="M51,42H37c-1.104,0-2-0.896-2-2V18c0-1.104,0.896-2,2-2s2,0.896,2,2v20h12c1.104,0,2,0.896,2,2
	S52.104,42,51,42z"/>
<g>
	<path fill="#191919" d="M13.534,57.89c-0.755,0-1.497-0.342-1.983-0.999c-0.012-0.017-0.038-0.053-0.05-0.069
		c-0.788-1.12-0.536-2.674,0.574-3.476c1.108-0.802,2.65-0.57,3.465,0.529c0.822,1.11,0.603,2.695-0.507,3.517
		C14.581,57.727,14.054,57.89,13.534,57.89z"/>
	<path fill="#191919" d="M9.858,51.002c-0.986,0-1.906-0.579-2.285-1.559c-0.009-0.022-0.052-0.135-0.06-0.157
		c-0.461-1.301,0.219-2.73,1.521-3.192c1.3-0.461,2.73,0.219,3.192,1.52c0.457,1.288-0.188,2.75-1.47,3.225
		C10.46,50.95,10.156,51.002,9.858,51.002z M8.138,43.418c-1.278,0-2.369-0.976-2.486-2.273l2.489-0.227l-2.492,0.197
		c-0.141-1.364,0.842-2.604,2.204-2.758c1.36-0.155,2.593,0.8,2.76,2.16c0.003,0.026,0.016,0.148,0.018,0.175
		c0.125,1.375-0.888,2.591-2.263,2.716C8.29,43.415,8.214,43.418,8.138,43.418z M8.394,35.549c-0.132,0-0.265-0.011-0.398-0.033
		c-1.348-0.225-2.273-1.441-2.068-2.792C5.931,32.7,5.95,32.58,5.954,32.555c0.247-1.358,1.543-2.264,2.907-2.012
		c1.358,0.247,2.26,1.548,2.013,2.907C10.653,34.661,9.588,35.549,8.394,35.549z M10.667,28.111c-0.354,0-0.713-0.076-1.056-0.235
		c-1.251-0.584-1.792-2.072-1.208-3.323l2.266,1.057l-2.254-1.083c0.565-1.247,2.035-1.828,3.292-1.275
		c1.254,0.551,1.839,1.99,1.302,3.25c-0.011,0.025-0.063,0.14-0.074,0.165C12.51,27.577,11.608,28.111,10.667,28.111z
		 M14.813,21.417c-0.555,0-1.108-0.18-1.564-0.555c-1.065-0.878-1.249-2.416-0.371-3.482l0.062-0.075
		c0.877-1.067,2.454-1.219,3.519-0.34c1.066,0.877,1.219,2.453,0.341,3.519C16.297,21.094,15.555,21.417,14.813,21.417z"/>
	<circle fill="#191919" cx="20.25" cy="13.516" r="2.547"/>
</g>
</svg>
