<?xml version="1.0" encoding="utf-8"?>
<!-- Generator: Adobe Illustrator 16.0.3, SVG Export Plug-In . SVG Version: 6.00 Build 0)  -->
<!DOCTYPE svg PUBLIC "-//W3C//DTD SVG 1.1//EN" "http://www.w3.org/Graphics/SVG/1.1/DTD/svg11.dtd">
<svg version="1.1" id="Vrstva_1" xmlns="http://www.w3.org/2000/svg" xmlns:xlink="http://www.w3.org/1999/xlink" x="0px" y="0px"
	 width="195px" height="75px" viewBox="0 0 195 75" enable-background="new 0 0 195 75" xml:space="preserve">
<g>
	<path fill="#969696" d="M195,67c0,4.4-3.6,8-8,8H8c-4.4,0-8-3.6-8-8V8c0-4.4,3.6-8,8-8h179c4.4,0,8,3.6,8,8V67z"/>
</g>
<path fill="#191919" d="M16.96,55.778l6.689,6.722l24.922-25.004L23.649,12.5l-6.689,6.728l10.896,11.103
	c1.111,1.165,0.602,2.42-1,2.42H-4.667v9.491h31.522c1.602,0,2.112,1.264,1,2.431L16.96,55.778z"/>
<g>
	<rect x="48.738" y="8.813" fill="none" width="146.428" height="57.375"/>
	<path fill="#191919" d="M76.301,30.126l9.947-18.384h12.568l-15.447,26.44l15.848,26.88H86.502L76.301,46.386L66.1,65.063H53.384
		l15.848-26.88l-15.448-26.44h12.57L76.301,30.126z"/>
	<path fill="#191919" d="M123.009,35.766l11.039-24.023h11.95l-17.415,33.984v19.336h-11.112V45.727l-17.415-33.984h11.986
		L123.009,35.766z"/>
	<path fill="#191919" d="M162.43,56.237h26.742v8.826h-40.405v-6.445l26.232-37.976h-26.195v-8.899h39.785v6.299L162.43,56.237z"/>
</g>
<line fill="none" stroke="#DC2828" stroke-width="20" stroke-miterlimit="10" x1="190.667" y1="-7.667" x2="12.667" y2="90.333"/>
</svg>
