<?xml version="1.0" encoding="utf-8"?>
<!-- Generator: Adobe Illustrator 16.0.3, SVG Export Plug-In . SVG Version: 6.00 Build 0)  -->
<!DOCTYPE svg PUBLIC "-//W3C//DTD SVG 1.1//EN" "http://www.w3.org/Graphics/SVG/1.1/DTD/svg11.dtd">
<svg version="1.1" id="Vrstva_1" xmlns="http://www.w3.org/2000/svg" xmlns:xlink="http://www.w3.org/1999/xlink" x="0px" y="0px"
	 width="400px" height="250px" viewBox="0 0 400 250" enable-background="new 0 0 400 250" xml:space="preserve">
<rect fill="#FFAA1E" width="400" height="250"/>
<g>
	<rect x="135" y="77.667" fill="none" width="258.134" height="94.667"/>
	<path fill="#0A1432" d="M136.393,109.971c0.928-1.504,1.84-2.968,2.735-4.392c0.896-1.424,1.84-2.856,2.832-4.296
		c0.928-1.375,1.815-2.728,2.664-4.056c0.848-1.328,1.688-2.664,2.521-4.008h-9.84v-4.8h17.615v4.08
		c-0.928,1.504-1.84,2.976-2.736,4.416s-1.84,2.896-2.832,4.368c-0.896,1.344-1.76,2.672-2.592,3.984
		c-0.832,1.313-1.664,2.64-2.496,3.984h10.944v4.896h-18.815V109.971z"/>
	<path fill="#0A1432" d="M159.815,88.419h6.048v3.072c0.703-1.056,1.552-1.936,2.544-2.64c0.991-0.704,2.304-1.056,3.937-1.056
		c1.567,0,2.783,0.329,3.648,0.984c0.863,0.656,1.566,1.464,2.111,2.424c0.319-0.416,0.695-0.824,1.128-1.224
		c0.433-0.4,0.928-0.76,1.487-1.08c0.561-0.319,1.192-0.583,1.896-0.792c0.703-0.208,1.488-0.312,2.352-0.312
		c1.376,0,2.561,0.232,3.553,0.696c0.991,0.464,1.8,1.088,2.424,1.872c0.624,0.785,1.08,1.721,1.368,2.808
		c0.288,1.088,0.433,2.256,0.433,3.504v17.472h-6.385V96.675c0-1.344-0.271-2.32-0.816-2.928c-0.544-0.607-1.295-0.912-2.256-0.912
		c-0.959,0-1.768,0.36-2.424,1.08c-0.656,0.72-1.16,1.464-1.512,2.232v18h-6.24V96.915c0-1.44-0.271-2.479-0.816-3.12
		c-0.544-0.64-1.279-0.96-2.207-0.96c-0.513,0-0.977,0.104-1.393,0.312c-0.416,0.208-0.792,0.48-1.128,0.816
		s-0.624,0.704-0.864,1.104c-0.24,0.4-0.455,0.776-0.647,1.128v17.952h-6.24V88.419z"/>
	<path fill="#0A1432" d="M217.415,112.371c-0.833,0.704-1.88,1.272-3.144,1.704c-1.266,0.432-2.904,0.648-4.92,0.648
		c-1.729,0-3.313-0.32-4.752-0.96c-1.44-0.64-2.673-1.552-3.697-2.736c-1.023-1.184-1.816-2.6-2.375-4.248
		c-0.561-1.647-0.84-3.463-0.84-5.448c0-4.288,0.928-7.616,2.783-9.984s4.385-3.552,7.584-3.552s5.607,1.016,7.225,3.048
		c1.615,2.033,2.424,4.776,2.424,8.232c0,0.576-0.017,1.168-0.048,1.776c-0.032,0.608-0.081,1.088-0.144,1.44h-13.488
		c0.031,1.088,0.24,2.081,0.623,2.976c0.385,0.896,0.889,1.672,1.513,2.328c0.624,0.656,1.335,1.168,2.136,1.536
		c0.8,0.368,1.648,0.552,2.544,0.552c2.432,0,4.479-0.784,6.144-2.352L217.415,112.371z M200.471,77.955l4.225-0.24l3.6,3.936
		l3.6-3.936l4.177,0.24l-5.328,7.728h-4.896L200.471,77.955z M211.559,97.971c-0.096-3.872-1.264-5.808-3.504-5.808
		c-1.088,0-1.992,0.464-2.711,1.392c-0.721,0.928-1.145,2.4-1.272,4.416H211.559z"/>
	<path fill="#0A1432" d="M222.791,88.419h6.096v3.072c0.224-0.384,0.528-0.792,0.912-1.224c0.385-0.432,0.832-0.832,1.344-1.2
		c0.512-0.367,1.096-0.672,1.752-0.912c0.656-0.24,1.4-0.36,2.232-0.36c2.815,0,4.824,0.809,6.023,2.424
		c1.201,1.617,1.801,3.785,1.801,6.504v17.424h-6.385V96.963c0-1.312-0.256-2.328-0.768-3.048c-0.512-0.72-1.328-1.08-2.447-1.08
		c-0.992,0-1.816,0.305-2.473,0.912c-0.656,0.608-1.256,1.424-1.8,2.448v17.952h-6.288V88.419z"/>
	<path fill="#0A1432" d="M261.67,114.147c-0.16-0.352-0.304-0.784-0.432-1.296c-0.128-0.512-0.225-0.96-0.287-1.344
		c-0.449,0.768-1.217,1.497-2.305,2.184c-1.088,0.688-2.352,1.032-3.792,1.032c-1.12,0-2.128-0.185-3.024-0.552
		c-0.896-0.367-1.648-0.919-2.256-1.656c-0.576-0.736-1.008-1.592-1.295-2.568c-0.289-0.976-0.433-1.975-0.433-3
		c0-2.496,0.888-4.567,2.664-6.216c1.776-1.648,4.376-2.647,7.8-3l2.496-0.288c0-1.375-0.377-2.512-1.128-3.408
		c-0.753-0.896-1.849-1.344-3.288-1.344c-1.377,0-2.584,0.24-3.624,0.72s-2.088,1.104-3.144,1.872l-0.528-5.232
		c0.991-0.607,2.151-1.135,3.479-1.584c1.328-0.448,2.936-0.672,4.824-0.672c3.168,0,5.584,0.912,7.248,2.736
		c1.664,1.824,2.496,4.385,2.496,7.68v11.568c0,0.992,0.048,1.8,0.145,2.424c0.096,0.624,0.223,1.272,0.383,1.944H261.67z
		 M260.807,102.147c-2.305,0.161-3.984,0.608-5.04,1.344c-1.056,0.736-1.584,1.824-1.584,3.264c0,0.929,0.28,1.688,0.84,2.28
		c0.56,0.592,1.304,0.888,2.231,0.888c0.801,0,1.488-0.151,2.064-0.456c0.576-0.304,1.072-0.711,1.488-1.224V102.147z"/>
	<path fill="#0A1432" d="M284.949,92.307h-3.455v-3.888h3.455v-4.848l6.289-2.832v7.68h5.711v3.888h-5.711v13.2
		c0,1.568,0.207,2.657,0.623,3.264c0.416,0.608,1.137,0.912,2.16,0.912c0.641,0,1.2-0.072,1.68-0.216
		c0.48-0.144,0.992-0.328,1.537-0.552l-0.48,4.944c-0.576,0.192-1.217,0.384-1.92,0.576c-0.704,0.192-1.632,0.288-2.784,0.288
		c-2.304,0-4.063-0.68-5.28-2.04c-1.216-1.36-1.824-3.368-1.824-6.024V92.307z"/>
	<path fill="#0A1432" d="M301.27,88.419h6.096v4.032c0.288-0.576,0.632-1.128,1.032-1.656c0.399-0.528,0.864-0.991,1.392-1.392
		c0.528-0.399,1.152-0.72,1.873-0.96c0.719-0.24,1.543-0.36,2.472-0.36c0.64,0,1.2,0.048,1.68,0.144l-0.575,5.28
		c-0.225-0.063-0.457-0.112-0.697-0.144c-0.239-0.031-0.535-0.048-0.888-0.048c-1.376,0-2.56,0.296-3.552,0.888
		c-0.992,0.592-1.84,1.608-2.544,3.048v16.896h-6.288V88.419z"/>
	<path fill="#0A1432" d="M331.029,114.147c-0.16-0.352-0.305-0.784-0.432-1.296c-0.129-0.512-0.225-0.96-0.288-1.344
		c-0.448,0.768-1.217,1.497-2.304,2.184c-1.089,0.688-2.353,1.032-3.793,1.032c-1.12,0-2.128-0.185-3.023-0.552
		c-0.896-0.367-1.648-0.919-2.256-1.656c-0.576-0.736-1.008-1.592-1.296-2.568c-0.288-0.976-0.433-1.975-0.433-3
		c0-2.496,0.889-4.567,2.664-6.216c1.776-1.648,4.376-2.647,7.801-3l2.496-0.288c0-1.375-0.377-2.512-1.129-3.408
		c-0.752-0.896-1.848-1.344-3.287-1.344c-1.377,0-2.585,0.24-3.625,0.72s-2.088,1.104-3.144,1.872l-0.528-5.232
		c0.992-0.607,2.152-1.135,3.48-1.584c1.327-0.448,2.936-0.672,4.824-0.672c3.168,0,5.584,0.912,7.248,2.736
		c1.663,1.824,2.496,4.385,2.496,7.68v11.568c0,0.992,0.047,1.8,0.144,2.424c0.096,0.624,0.224,1.272,0.384,1.944H331.029z
		 M330.166,102.147c-2.305,0.161-3.984,0.608-5.041,1.344c-1.056,0.736-1.584,1.824-1.584,3.264c0,0.929,0.28,1.688,0.84,2.28
		c0.561,0.592,1.305,0.888,2.232,0.888c0.8,0,1.488-0.151,2.064-0.456c0.576-0.304,1.071-0.711,1.488-1.224V102.147z"/>
	<path fill="#0A1432" d="M341.973,107.283c0.928,0.672,2.008,1.288,3.24,1.848c1.231,0.561,2.504,0.84,3.816,0.84
		c0.415,0,0.84-0.04,1.271-0.12c0.432-0.08,0.808-0.216,1.128-0.408c0.319-0.192,0.583-0.456,0.792-0.792
		c0.207-0.336,0.313-0.76,0.313-1.272c0-0.96-0.385-1.72-1.152-2.28c-0.768-0.56-1.744-1.08-2.928-1.56
		c-0.896-0.384-1.752-0.808-2.568-1.272c-0.816-0.463-1.528-1.008-2.137-1.632c-0.607-0.624-1.088-1.359-1.439-2.208
		c-0.353-0.847-0.527-1.848-0.527-3c0-1.183,0.256-2.248,0.768-3.192c0.512-0.943,1.184-1.744,2.016-2.4
		c0.832-0.655,1.801-1.16,2.904-1.512c1.104-0.352,2.248-0.528,3.432-0.528c1.536,0,2.881,0.161,4.032,0.48
		c1.151,0.32,2.191,0.72,3.12,1.2l-0.816,4.944c-0.832-0.544-1.76-1.024-2.783-1.44c-1.025-0.416-2.145-0.624-3.36-0.624
		c-0.769,0-1.488,0.216-2.16,0.648s-1.008,1.064-1.008,1.896c0,0.417,0.079,0.785,0.239,1.104c0.16,0.32,0.416,0.624,0.769,0.912
		s0.815,0.576,1.392,0.864c0.576,0.288,1.279,0.608,2.112,0.96c0.832,0.353,1.64,0.752,2.425,1.2
		c0.783,0.449,1.471,0.977,2.063,1.584c0.592,0.608,1.063,1.328,1.416,2.16c0.352,0.833,0.528,1.808,0.528,2.928
		c0,2.592-0.864,4.592-2.592,6c-1.729,1.409-4.049,2.112-6.961,2.112c-1.632,0-3.072-0.161-4.32-0.48
		c-1.248-0.32-2.464-0.784-3.647-1.392L341.973,107.283z"/>
	<path fill="#0A1432" d="M361.076,118.035c0.64,0.448,1.271,0.799,1.896,1.056c0.623,0.256,1.303,0.384,2.039,0.384
		c0.928,0,1.816-0.464,2.664-1.392c0.848-0.929,1.64-2.64,2.376-5.136c-1.792-4.288-3.392-8.368-4.8-12.24
		c-0.768-2.08-1.512-4.12-2.232-6.12c-0.72-2-1.447-4.056-2.184-6.168h6.912c0.416,1.376,0.823,2.744,1.225,4.104
		c0.398,1.36,0.822,2.729,1.271,4.104c0.512,1.568,1.023,3.12,1.535,4.656c0.512,1.536,1.04,3.088,1.584,4.656
		c0.48-1.567,0.92-3.112,1.32-4.632c0.4-1.52,0.824-3.08,1.272-4.68c0.769-2.784,1.44-5.52,2.017-8.208h6.432
		c-0.608,2.081-1.225,4.136-1.848,6.168c-0.625,2.033-1.257,4.088-1.896,6.168c-0.736,2.272-1.488,4.577-2.256,6.912
		c-0.768,2.336-1.553,4.64-2.353,6.912c-0.479,1.375-1.024,2.671-1.632,3.888c-0.608,1.216-1.32,2.28-2.136,3.192
		c-0.816,0.912-1.761,1.639-2.832,2.184c-1.073,0.544-2.328,0.816-3.769,0.816c-2.176,0-4.048-0.513-5.615-1.536L361.076,118.035z"
		/>
	<path fill="#0A1432" d="M152.664,169.106c-0.225,0.288-0.512,0.617-0.864,0.984c-0.353,0.368-0.776,0.72-1.272,1.056
		s-1.072,0.616-1.728,0.84c-0.656,0.223-1.384,0.336-2.184,0.336c-2.913,0-5.177-1.12-6.792-3.36
		c-1.617-2.239-2.424-5.68-2.424-10.32c0-4.352,0.871-7.648,2.615-9.888c1.744-2.239,4.057-3.36,6.937-3.36
		c0.703,0,1.344,0.088,1.92,0.264c0.576,0.176,1.096,0.392,1.56,0.648c0.464,0.256,0.872,0.536,1.225,0.84
		c0.352,0.305,0.655,0.6,0.912,0.888v-12.768h4.464v36.48h-4.368V169.106z M152.568,152.115c-0.225-0.352-0.488-0.712-0.793-1.08
		c-0.304-0.368-0.647-0.696-1.031-0.984c-0.385-0.288-0.832-0.528-1.344-0.72c-0.513-0.192-1.089-0.288-1.729-0.288
		c-1.601,0-2.944,0.8-4.031,2.4c-1.089,1.601-1.633,3.968-1.633,7.104c0,3.456,0.488,6.008,1.465,7.656
		c0.975,1.648,2.295,2.472,3.959,2.472c0.641,0,1.225-0.112,1.752-0.336c0.528-0.223,1.008-0.511,1.44-0.864
		c0.433-0.352,0.815-0.728,1.151-1.128c0.336-0.4,0.601-0.792,0.793-1.176V152.115z"/>
	<path fill="#0A1432" d="M165.912,141.65c-0.705,0-1.313-0.28-1.824-0.84c-0.512-0.56-0.768-1.24-0.768-2.04
		c0-0.736,0.256-1.392,0.768-1.968c0.512-0.576,1.119-0.864,1.824-0.864c0.735,0,1.359,0.288,1.871,0.864
		c0.512,0.576,0.769,1.232,0.769,1.968c0,0.8-0.257,1.48-0.769,2.04C167.271,141.371,166.647,141.65,165.912,141.65z
		 M163.703,146.019h4.416v25.728h-4.416V146.019z"/>
	<path fill="#0A1432" d="M180.84,171.987c-0.929-2.624-1.873-5.256-2.832-7.896c-0.961-2.64-1.889-5.256-2.784-7.848
		c-0.608-1.792-1.177-3.528-1.704-5.208c-0.527-1.68-1.049-3.352-1.561-5.016h4.801c0.447,1.536,0.903,3.088,1.367,4.656
		s0.969,3.152,1.513,4.752l3.456,10.464l3.455-10.56c0.512-1.567,1.009-3.136,1.488-4.704c0.48-1.567,0.928-3.104,1.344-4.608h4.561
		c-0.512,1.696-1.04,3.384-1.584,5.064c-0.545,1.68-1.104,3.384-1.68,5.112c-0.864,2.656-1.776,5.296-2.736,7.92
		c-0.96,2.624-1.904,5.249-2.832,7.872H180.84z"/>
	<path fill="#0A1432" d="M215.256,169.922c-0.736,0.576-1.721,1.121-2.953,1.632c-1.231,0.511-2.84,0.768-4.823,0.768
		c-1.665,0-3.177-0.32-4.536-0.96c-1.36-0.64-2.528-1.552-3.504-2.736c-0.977-1.184-1.736-2.592-2.28-4.224
		c-0.544-1.632-0.815-3.456-0.815-5.472c0-2.112,0.216-4,0.647-5.664c0.433-1.664,1.063-3.08,1.896-4.248
		c0.832-1.167,1.855-2.064,3.072-2.688s2.624-0.936,4.225-0.936c1.632,0,3.023,0.288,4.176,0.864
		c1.152,0.576,2.104,1.384,2.855,2.424c0.752,1.04,1.297,2.272,1.633,3.696c0.336,1.424,0.504,2.984,0.504,4.68
		c0,0.256-0.017,0.641-0.049,1.152c-0.031,0.512-0.064,0.896-0.096,1.152h-14.16c0.032,1.248,0.225,2.432,0.576,3.552
		c0.352,1.121,0.848,2.088,1.488,2.904c0.64,0.816,1.393,1.464,2.256,1.944c0.864,0.48,1.824,0.72,2.881,0.72
		c1.471,0,2.727-0.248,3.768-0.744c1.039-0.496,1.975-1.096,2.808-1.8L215.256,169.922z M210.695,156.002
		c0-2.304-0.368-4.08-1.104-5.328c-0.736-1.248-1.873-1.872-3.408-1.872c-1.536,0-2.744,0.624-3.624,1.872
		c-0.881,1.248-1.368,3.024-1.464,5.328H210.695z"/>
	<path fill="#0A1432" d="M220.729,146.019h4.416l0.047,4.032c0.865-1.44,1.855-2.528,2.977-3.264
		c1.119-0.736,2.432-1.104,3.936-1.104c0.385,0,0.696,0.008,0.937,0.024c0.239,0.017,0.439,0.056,0.601,0.12l-0.433,3.936
		c-0.448-0.096-0.977-0.144-1.584-0.144c-1.44,0-2.712,0.473-3.815,1.416c-1.104,0.944-1.992,2.28-2.664,4.008v16.704h-4.416
		V146.019z"/>
	<path fill="#0A1432" d="M235.991,166.227c0.353,0.256,0.784,0.528,1.296,0.816s1.08,0.552,1.704,0.792
		c0.624,0.24,1.28,0.44,1.968,0.6c0.688,0.161,1.368,0.24,2.041,0.24c1.311,0,2.359-0.328,3.144-0.984
		c0.784-0.655,1.176-1.495,1.176-2.52c0-0.768-0.208-1.464-0.624-2.088s-1.137-1.192-2.16-1.704c-0.672-0.352-1.4-0.711-2.184-1.08
		c-0.785-0.367-1.496-0.727-2.137-1.08c-1.313-0.736-2.32-1.616-3.023-2.64c-0.704-1.024-1.057-2.352-1.057-3.984
		c0-0.992,0.192-1.928,0.576-2.808c0.385-0.88,0.928-1.648,1.633-2.304c0.703-0.655,1.56-1.167,2.567-1.536
		c1.009-0.368,2.151-0.552,3.433-0.552c1.632,0,3.016,0.2,4.151,0.6c1.136,0.4,2.024,0.792,2.664,1.176l-0.672,3.888
		c-0.736-0.607-1.593-1.12-2.567-1.536c-0.977-0.416-2.088-0.624-3.336-0.624c-1.313,0-2.297,0.305-2.953,0.912
		c-0.656,0.608-0.983,1.376-0.983,2.304c0,0.576,0.087,1.072,0.264,1.488c0.176,0.417,0.472,0.8,0.888,1.152
		c0.416,0.353,0.984,0.713,1.705,1.08c0.719,0.368,1.623,0.809,2.711,1.32c1.729,0.8,3.112,1.776,4.152,2.928
		c1.039,1.152,1.561,2.64,1.561,4.464c0,1.152-0.209,2.208-0.625,3.168c-0.416,0.96-1.008,1.776-1.775,2.448s-1.696,1.2-2.784,1.584
		s-2.288,0.576-3.6,0.576c-1.601,0-3.057-0.2-4.368-0.6c-1.313-0.4-2.385-0.84-3.216-1.32L235.991,166.227z"/>
	<path fill="#0A1432" d="M259.031,141.65c-0.703,0-1.313-0.28-1.823-0.84c-0.513-0.56-0.769-1.24-0.769-2.04
		c0-0.736,0.256-1.392,0.769-1.968c0.511-0.576,1.12-0.864,1.823-0.864c0.736,0,1.36,0.288,1.873,0.864
		c0.512,0.576,0.768,1.232,0.768,1.968c0,0.8-0.256,1.48-0.768,2.04C260.392,141.371,259.768,141.65,259.031,141.65z
		 M256.824,146.019h4.416v25.728h-4.416V146.019z"/>
	<path fill="#0A1432" d="M277.752,172.323c-1.602,0-3.057-0.296-4.368-0.888c-1.313-0.592-2.44-1.472-3.384-2.64
		c-0.945-1.167-1.68-2.607-2.209-4.32c-0.527-1.711-0.791-3.688-0.791-5.928c0-2.112,0.264-3.984,0.791-5.616
		c0.529-1.632,1.264-3.008,2.209-4.128c0.943-1.12,2.071-1.968,3.384-2.544c1.312-0.576,2.767-0.864,4.368-0.864
		c1.567,0,3.016,0.288,4.344,0.864c1.328,0.576,2.455,1.424,3.384,2.544c0.928,1.12,1.656,2.496,2.185,4.128
		c0.527,1.632,0.791,3.504,0.791,5.616c0,2.24-0.264,4.217-0.791,5.928c-0.528,1.712-1.257,3.152-2.185,4.32
		c-0.929,1.168-2.056,2.048-3.384,2.64S279.319,172.323,277.752,172.323z M277.752,168.723c0.959,0,1.824-0.248,2.592-0.744
		c0.768-0.496,1.408-1.192,1.92-2.088c0.512-0.896,0.904-1.968,1.176-3.216c0.271-1.248,0.408-2.624,0.408-4.128
		c0-3.007-0.527-5.352-1.584-7.032s-2.561-2.52-4.512-2.52c-1.984,0-3.504,0.84-4.561,2.52c-1.056,1.68-1.584,4.024-1.584,7.032
		c0,1.505,0.136,2.88,0.408,4.128c0.271,1.248,0.664,2.32,1.176,3.216c0.512,0.896,1.152,1.592,1.92,2.088
		C275.879,168.475,276.76,168.723,277.752,168.723z"/>
	<path fill="#0A1432" d="M294.168,146.019h4.416v3.12c0.352-0.448,0.76-0.896,1.224-1.344c0.464-0.448,0.983-0.847,1.56-1.2
		c0.576-0.352,1.216-0.64,1.92-0.864c0.704-0.223,1.472-0.336,2.305-0.336c2.592,0,4.512,0.761,5.76,2.28
		c1.248,1.52,1.872,3.528,1.872,6.024v18.048h-4.513v-17.664c0-1.6-0.359-2.815-1.08-3.648c-0.719-0.832-1.703-1.248-2.951-1.248
		c-1.44,0-2.656,0.456-3.648,1.368s-1.809,2.088-2.447,3.528v17.664h-4.416V146.019z"/>
</g>
<g>
	<path fill="#0A1432" d="M32.503,75c0,0-12.503,0-12.503,12.5v75.002c0,0,0,12.5,12.503,12.5h74.999c0,0,12.498,0,12.498-12.5
		V87.499c0,0,0-12.5-12.498-12.5H32.503z"/>
	<path fill="#FFAA1E" d="M107.321,141.146H89.588c-0.466,0-0.898-0.059-1.335-0.153c-2.822-0.536-4.96-2.979-4.96-5.93v-24.771
		H70.734v24.71c0,0,0.018,0.061,0.018,0.092c0,3.34-2.735,6.051-6.127,6.051H44.9V151.8l-12.222-16.563v-0.092l12.316-17.339
		L44.9,129.051h12.734v-24.734v-0.07c0-3.344,2.738-6.047,6.118-6.047h25.562h0.05h0.053c3.384,0,6.128,2.703,6.128,6.047v24.804
		h11.776V141.146z"/>
	<rect x="20" y="75.001" fill="none" width="100" height="99.999"/>
</g>
<line fill="none" stroke="#DC2828" stroke-width="20" stroke-miterlimit="10" x1="344" y1="-46.667" x2="80.667" y2="301.333"/>
</svg>
