<?xml version="1.0" encoding="utf-8"?>
<!-- Generator: Adobe Illustrator 16.0.3, SVG Export Plug-In . SVG Version: 6.00 Build 0)  -->
<!DOCTYPE svg PUBLIC "-//W3C//DTD SVG 1.1//EN" "http://www.w3.org/Graphics/SVG/1.1/DTD/svg11.dtd">
<svg version="1.1" id="Vrstva_1" xmlns="http://www.w3.org/2000/svg" xmlns:xlink="http://www.w3.org/1999/xlink" x="0px" y="0px"
	 width="280px" height="75px" viewBox="0 0 280 75" enable-background="new 0 0 280 75" xml:space="preserve">
<g>
	<g>
		<rect x="86.25" y="2" fill="none" width="193.599" height="71"/>
		<path fill="#FFAA1E" d="M87.293,26.228c0.696-1.128,1.381-2.226,2.053-3.294s1.379-2.142,2.124-3.222
			c0.696-1.032,1.361-2.046,1.997-3.042c0.637-0.996,1.266-1.998,1.891-3.006h-7.38v-3.6h13.212v3.06
			c-0.696,1.128-1.381,2.232-2.053,3.312s-1.38,2.172-2.123,3.276c-0.672,1.008-1.32,2.004-1.944,2.988
			c-0.624,0.984-1.248,1.98-1.872,2.988h8.208v3.672H87.293V26.228z"/>
		<path fill="#FFAA1E" d="M104.861,10.064h4.535v2.304c0.527-0.792,1.164-1.452,1.908-1.98s1.729-0.792,2.952-0.792
			c1.176,0,2.088,0.246,2.735,0.738c0.648,0.492,1.176,1.098,1.584,1.818c0.24-0.312,0.522-0.618,0.847-0.918
			c0.323-0.3,0.696-0.57,1.116-0.81c0.42-0.239,0.894-0.438,1.422-0.594c0.527-0.156,1.115-0.234,1.764-0.234
			c1.031,0,1.92,0.174,2.664,0.522c0.744,0.348,1.35,0.816,1.818,1.404c0.468,0.588,0.81,1.291,1.025,2.106
			c0.217,0.816,0.324,1.692,0.324,2.628V29.36h-4.788V16.256c0-1.008-0.204-1.74-0.612-2.196c-0.408-0.456-0.972-0.684-1.691-0.684
			c-0.721,0-1.326,0.27-1.818,0.81s-0.87,1.098-1.134,1.674v13.5h-4.68V16.436c0-1.08-0.204-1.86-0.612-2.34
			c-0.408-0.479-0.96-0.72-1.656-0.72c-0.384,0-0.732,0.078-1.043,0.234c-0.313,0.156-0.595,0.36-0.847,0.612
			c-0.252,0.252-0.468,0.528-0.647,0.828c-0.181,0.3-0.342,0.583-0.486,0.846V29.36h-4.68V10.064z"/>
		<path fill="#FFAA1E" d="M148.061,28.028c-0.624,0.528-1.41,0.954-2.357,1.278c-0.949,0.324-2.178,0.486-3.69,0.486
			c-1.296,0-2.483-0.24-3.563-0.72c-1.08-0.479-2.004-1.164-2.772-2.052c-0.769-0.888-1.362-1.95-1.782-3.186
			c-0.42-1.236-0.63-2.598-0.63-4.086c0-3.216,0.696-5.712,2.088-7.488c1.392-1.775,3.288-2.664,5.688-2.664
			c2.399,0,4.205,0.762,5.418,2.286c1.211,1.524,1.818,3.582,1.818,6.174c0,0.432-0.014,0.876-0.037,1.332
			c-0.023,0.457-0.06,0.816-0.107,1.08h-10.116c0.024,0.816,0.181,1.561,0.468,2.232c0.289,0.672,0.666,1.254,1.135,1.746
			c0.468,0.492,1.002,0.876,1.602,1.152c0.6,0.276,1.236,0.414,1.908,0.414c1.823,0,3.359-0.588,4.607-1.764L148.061,28.028z
			 M135.353,2.216l3.169-0.18l2.699,2.952l2.7-2.952l3.132,0.18l-3.996,5.796h-3.672L135.353,2.216z M143.669,17.228
			c-0.072-2.904-0.948-4.356-2.628-4.356c-0.816,0-1.494,0.348-2.034,1.044c-0.54,0.696-0.858,1.8-0.954,3.312H143.669z"/>
		<path fill="#FFAA1E" d="M152.093,10.064h4.571v2.304c0.168-0.288,0.396-0.594,0.685-0.918c0.288-0.324,0.624-0.624,1.009-0.9
			c0.383-0.275,0.821-0.504,1.313-0.684c0.491-0.18,1.05-0.27,1.674-0.27c2.112,0,3.618,0.606,4.519,1.818
			c0.899,1.212,1.35,2.838,1.35,4.878V29.36h-4.788V16.472c0-0.984-0.192-1.746-0.576-2.286s-0.996-0.81-1.836-0.81
			c-0.744,0-1.362,0.229-1.854,0.684c-0.492,0.456-0.941,1.068-1.35,1.836V29.36h-4.716V10.064z"/>
		<path fill="#FFAA1E" d="M181.252,29.36c-0.119-0.264-0.229-0.588-0.323-0.972c-0.097-0.383-0.169-0.72-0.216-1.008
			c-0.337,0.576-0.912,1.122-1.729,1.638c-0.816,0.516-1.764,0.774-2.844,0.774c-0.84,0-1.597-0.139-2.268-0.414
			c-0.673-0.276-1.236-0.689-1.692-1.242c-0.433-0.552-0.757-1.193-0.972-1.926c-0.217-0.732-0.324-1.482-0.324-2.25
			c0-1.872,0.666-3.426,1.998-4.662c1.332-1.236,3.281-1.985,5.85-2.25l1.872-0.216c0-1.032-0.282-1.884-0.847-2.556
			c-0.563-0.671-1.385-1.008-2.465-1.008c-1.033,0-1.939,0.18-2.719,0.54c-0.779,0.36-1.566,0.828-2.357,1.404l-0.396-3.924
			c0.744-0.456,1.614-0.852,2.61-1.188c0.995-0.336,2.202-0.504,3.618-0.504c2.375,0,4.188,0.684,5.436,2.052
			s1.872,3.289,1.872,5.76v8.676c0,0.744,0.036,1.35,0.108,1.818s0.168,0.954,0.287,1.458H181.252z M180.604,20.36
			c-1.728,0.121-2.987,0.456-3.78,1.008c-0.791,0.553-1.188,1.368-1.188,2.448c0,0.696,0.209,1.266,0.63,1.71
			c0.419,0.444,0.978,0.666,1.674,0.666c0.6,0,1.116-0.114,1.548-0.342s0.805-0.534,1.116-0.918V20.36z"/>
		<path fill="#FFAA1E" d="M198.711,12.98h-2.592v-2.916h2.592V6.428l4.717-2.124v5.76h4.283v2.916h-4.283v9.9
			c0,1.176,0.156,1.992,0.468,2.448s0.852,0.684,1.62,0.684c0.48,0,0.9-0.054,1.26-0.162c0.36-0.108,0.744-0.246,1.152-0.414
			l-0.36,3.708c-0.432,0.144-0.912,0.288-1.44,0.432c-0.527,0.144-1.223,0.216-2.088,0.216c-1.728,0-3.047-0.51-3.959-1.53
			c-0.912-1.02-1.369-2.525-1.369-4.518V12.98z"/>
		<path fill="#FFAA1E" d="M210.951,10.064h4.572v3.024c0.217-0.432,0.474-0.846,0.774-1.242c0.3-0.396,0.647-0.744,1.044-1.044
			c0.396-0.3,0.863-0.54,1.404-0.72c0.539-0.18,1.157-0.27,1.854-0.27c0.48,0,0.9,0.036,1.26,0.108l-0.432,3.96
			c-0.168-0.048-0.342-0.084-0.521-0.108c-0.181-0.023-0.402-0.036-0.666-0.036c-1.033,0-1.921,0.222-2.664,0.666
			c-0.744,0.444-1.381,1.206-1.908,2.286V29.36h-4.717V10.064z"/>
		<path fill="#FFAA1E" d="M233.271,29.36c-0.121-0.264-0.229-0.588-0.324-0.972c-0.096-0.383-0.168-0.72-0.217-1.008
			c-0.336,0.576-0.912,1.122-1.728,1.638c-0.815,0.516-1.764,0.774-2.844,0.774c-0.841,0-1.597-0.139-2.269-0.414
			c-0.672-0.276-1.236-0.689-1.691-1.242c-0.432-0.552-0.756-1.193-0.973-1.926c-0.215-0.732-0.323-1.482-0.323-2.25
			c0-1.872,0.666-3.426,1.997-4.662c1.332-1.236,3.282-1.985,5.851-2.25l1.872-0.216c0-1.032-0.282-1.884-0.846-2.556
			c-0.564-0.671-1.387-1.008-2.467-1.008c-1.031,0-1.938,0.18-2.717,0.54c-0.781,0.36-1.566,0.828-2.359,1.404l-0.396-3.924
			c0.743-0.456,1.614-0.852,2.61-1.188c0.996-0.336,2.201-0.504,3.617-0.504c2.377,0,4.188,0.684,5.437,2.052
			c1.247,1.368,1.872,3.289,1.872,5.76v8.676c0,0.744,0.036,1.35,0.107,1.818c0.072,0.468,0.168,0.954,0.289,1.458H233.271z
			 M232.623,20.36c-1.729,0.121-2.988,0.456-3.779,1.008c-0.793,0.553-1.188,1.368-1.188,2.448c0,0.696,0.21,1.266,0.63,1.71
			c0.42,0.444,0.978,0.666,1.674,0.666c0.6,0,1.116-0.114,1.548-0.342c0.433-0.228,0.804-0.534,1.116-0.918V20.36z"/>
		<path fill="#FFAA1E" d="M241.479,24.212c0.696,0.504,1.506,0.966,2.43,1.386c0.924,0.42,1.879,0.63,2.863,0.63
			c0.311,0,0.629-0.03,0.953-0.09c0.324-0.06,0.605-0.162,0.846-0.306s0.438-0.342,0.594-0.594s0.234-0.57,0.234-0.954
			c0-0.72-0.287-1.29-0.863-1.71c-0.576-0.419-1.309-0.81-2.196-1.17c-0.673-0.288-1.313-0.606-1.927-0.954
			c-0.611-0.348-1.146-0.756-1.602-1.224c-0.456-0.468-0.816-1.02-1.08-1.656c-0.264-0.636-0.396-1.386-0.396-2.25
			c0-0.888,0.191-1.686,0.575-2.394c0.385-0.708,0.889-1.308,1.513-1.8c0.624-0.492,1.351-0.87,2.178-1.134
			c0.828-0.264,1.687-0.396,2.574-0.396c1.151,0,2.16,0.12,3.024,0.36c0.863,0.24,1.643,0.54,2.34,0.9l-0.612,3.708
			c-0.624-0.408-1.32-0.768-2.088-1.08c-0.769-0.312-1.608-0.468-2.521-0.468c-0.576,0-1.115,0.162-1.619,0.486
			s-0.756,0.798-0.756,1.422c0,0.313,0.059,0.588,0.18,0.828c0.119,0.24,0.312,0.468,0.576,0.684
			c0.264,0.216,0.611,0.432,1.043,0.648c0.433,0.216,0.96,0.456,1.584,0.72c0.625,0.265,1.23,0.564,1.818,0.9
			c0.588,0.336,1.104,0.732,1.549,1.188c0.443,0.456,0.797,0.996,1.062,1.62c0.264,0.625,0.396,1.356,0.396,2.196
			c0,1.944-0.647,3.444-1.943,4.5c-1.297,1.056-3.037,1.584-5.221,1.584c-1.224,0-2.304-0.121-3.24-0.36
			c-0.936-0.239-1.848-0.587-2.735-1.044L241.479,24.212z"/>
		<path fill="#FFAA1E" d="M255.807,32.276c0.479,0.336,0.954,0.6,1.422,0.792c0.468,0.192,0.978,0.288,1.529,0.288
			c0.696,0,1.362-0.348,1.998-1.044c0.637-0.697,1.23-1.98,1.783-3.852c-1.345-3.216-2.545-6.276-3.601-9.18
			c-0.576-1.56-1.134-3.09-1.674-4.59c-0.54-1.5-1.087-3.042-1.638-4.626h5.184c0.312,1.032,0.617,2.058,0.918,3.078
			c0.3,1.02,0.617,2.046,0.954,3.078c0.384,1.176,0.768,2.34,1.151,3.492c0.385,1.152,0.78,2.316,1.188,3.492
			c0.36-1.176,0.689-2.334,0.99-3.474c0.3-1.14,0.617-2.31,0.954-3.51c0.576-2.088,1.08-4.14,1.512-6.156h4.824
			c-0.457,1.561-0.918,3.102-1.387,4.626c-0.468,1.524-0.941,3.066-1.422,4.626c-0.553,1.705-1.115,3.432-1.691,5.184
			s-1.164,3.48-1.764,5.184c-0.361,1.031-0.77,2.003-1.225,2.916c-0.456,0.912-0.99,1.71-1.602,2.394
			c-0.612,0.684-1.32,1.23-2.125,1.638c-0.804,0.408-1.746,0.612-2.825,0.612c-1.633,0-3.036-0.384-4.212-1.152L255.807,32.276z"/>
		<path fill="#FFAA1E" d="M99.498,70.579c-0.169,0.217-0.385,0.463-0.648,0.738c-0.265,0.276-0.582,0.54-0.954,0.792
			s-0.804,0.462-1.296,0.63s-1.039,0.252-1.639,0.252c-2.184,0-3.882-0.84-5.094-2.52s-1.818-4.26-1.818-7.74
			c0-3.264,0.654-5.735,1.963-7.416c1.308-1.679,3.042-2.52,5.201-2.52c0.528,0,1.009,0.066,1.44,0.198
			c0.433,0.132,0.821,0.294,1.17,0.486c0.348,0.192,0.653,0.402,0.918,0.63s0.491,0.45,0.685,0.666v-9.576h3.348v27.36h-3.275
			V70.579z M99.426,57.835c-0.168-0.264-0.367-0.534-0.594-0.811c-0.229-0.275-0.486-0.521-0.774-0.737
			c-0.288-0.217-0.624-0.396-1.009-0.54c-0.384-0.145-0.815-0.217-1.295-0.217c-1.201,0-2.209,0.601-3.024,1.801
			c-0.816,1.2-1.224,2.976-1.224,5.327c0,2.593,0.365,4.507,1.098,5.742c0.732,1.236,1.722,1.854,2.97,1.854
			c0.479,0,0.919-0.084,1.314-0.252s0.756-0.384,1.079-0.648c0.324-0.264,0.613-0.546,0.865-0.846s0.449-0.594,0.594-0.882V57.835z"
			/>
		<path fill="#FFAA1E" d="M109.434,49.987c-0.528,0-0.984-0.21-1.368-0.63s-0.576-0.93-0.576-1.53c0-0.552,0.192-1.044,0.576-1.476
			c0.384-0.432,0.84-0.648,1.368-0.648c0.552,0,1.02,0.216,1.404,0.648c0.383,0.432,0.575,0.924,0.575,1.476
			c0,0.6-0.192,1.11-0.575,1.53C110.453,49.777,109.985,49.987,109.434,49.987z M107.777,53.263h3.313v19.296h-3.313V53.263z"/>
		<path fill="#FFAA1E" d="M120.629,72.739c-0.696-1.968-1.404-3.941-2.124-5.922c-0.72-1.979-1.417-3.941-2.088-5.886
			c-0.456-1.344-0.882-2.646-1.278-3.906s-0.786-2.514-1.17-3.762h3.6c0.336,1.152,0.678,2.316,1.026,3.492
			c0.348,1.176,0.726,2.364,1.134,3.563l2.592,7.849l2.592-7.92c0.385-1.176,0.757-2.353,1.117-3.528
			c0.359-1.176,0.695-2.327,1.008-3.456h3.42c-0.385,1.272-0.78,2.538-1.188,3.798c-0.409,1.26-0.828,2.538-1.261,3.834
			c-0.647,1.992-1.332,3.973-2.052,5.94c-0.721,1.968-1.428,3.936-2.124,5.903H120.629z"/>
		<path fill="#FFAA1E" d="M146.441,71.191c-0.553,0.433-1.291,0.841-2.215,1.225c-0.924,0.383-2.13,0.575-3.617,0.575
			c-1.248,0-2.383-0.24-3.402-0.72c-1.021-0.479-1.896-1.164-2.628-2.052c-0.732-0.888-1.302-1.944-1.71-3.168
			c-0.408-1.225-0.612-2.592-0.612-4.104c0-1.584,0.162-2.999,0.486-4.248c0.323-1.247,0.798-2.31,1.422-3.186
			s1.392-1.548,2.304-2.016c0.912-0.468,1.968-0.702,3.168-0.702c1.225,0,2.268,0.216,3.133,0.648
			c0.863,0.432,1.577,1.039,2.142,1.818c0.563,0.78,0.972,1.704,1.224,2.771c0.252,1.068,0.379,2.238,0.379,3.511
			c0,0.192-0.014,0.48-0.037,0.863c-0.023,0.385-0.048,0.673-0.072,0.864h-10.619c0.023,0.937,0.168,1.824,0.432,2.664
			c0.264,0.841,0.636,1.566,1.116,2.178c0.479,0.612,1.044,1.099,1.692,1.458c0.647,0.36,1.367,0.54,2.16,0.54
			c1.104,0,2.045-0.186,2.825-0.558s1.481-0.822,2.106-1.351L146.441,71.191z M143.021,60.751c0-1.729-0.277-3.061-0.828-3.996
			c-0.553-0.937-1.404-1.404-2.557-1.404s-2.059,0.468-2.718,1.404c-0.66,0.936-1.026,2.268-1.099,3.996H143.021z"/>
		<path fill="#FFAA1E" d="M150.545,53.263h3.313l0.035,3.024c0.648-1.08,1.393-1.896,2.232-2.448
			c0.84-0.552,1.824-0.828,2.952-0.828c0.288,0,0.522,0.006,0.702,0.018c0.18,0.012,0.329,0.042,0.449,0.09l-0.324,2.952
			c-0.336-0.071-0.732-0.107-1.188-0.107c-1.08,0-2.033,0.354-2.861,1.062c-0.828,0.708-1.494,1.71-1.998,3.006v12.528h-3.313
			V53.263z"/>
		<path fill="#FFAA1E" d="M161.992,68.419c0.264,0.192,0.588,0.396,0.973,0.611c0.384,0.217,0.811,0.414,1.277,0.595
			c0.469,0.18,0.96,0.33,1.477,0.449c0.516,0.121,1.025,0.181,1.529,0.181c0.984,0,1.771-0.246,2.359-0.738
			c0.587-0.491,0.881-1.122,0.881-1.89c0-0.576-0.156-1.099-0.468-1.566s-0.853-0.894-1.62-1.278
			c-0.504-0.264-1.05-0.533-1.638-0.81c-0.589-0.275-1.122-0.546-1.603-0.81c-0.984-0.553-1.74-1.212-2.268-1.98
			c-0.527-0.768-0.792-1.764-0.792-2.988c0-0.743,0.144-1.445,0.433-2.105c0.287-0.66,0.695-1.236,1.224-1.729
			c0.527-0.491,1.17-0.875,1.926-1.152c0.757-0.275,1.614-0.414,2.574-0.414c1.224,0,2.262,0.15,3.114,0.45
			c0.852,0.3,1.518,0.594,1.998,0.882l-0.504,2.917c-0.553-0.456-1.195-0.84-1.926-1.152c-0.732-0.312-1.566-0.468-2.503-0.468
			c-0.984,0-1.722,0.229-2.214,0.684c-0.492,0.456-0.738,1.032-0.738,1.729c0,0.432,0.066,0.804,0.198,1.115
			c0.132,0.313,0.354,0.601,0.666,0.864c0.312,0.265,0.738,0.534,1.278,0.811c0.539,0.275,1.218,0.606,2.033,0.989
			c1.297,0.601,2.334,1.332,3.115,2.196c0.779,0.864,1.17,1.98,1.17,3.348c0,0.864-0.156,1.656-0.469,2.376
			c-0.313,0.721-0.756,1.332-1.332,1.836c-0.576,0.505-1.271,0.9-2.088,1.188s-1.717,0.432-2.699,0.432
			c-1.201,0-2.293-0.149-3.277-0.449s-1.787-0.631-2.411-0.99L161.992,68.419z"/>
		<path fill="#FFAA1E" d="M179.272,49.987c-0.528,0-0.984-0.21-1.368-0.63s-0.576-0.93-0.576-1.53c0-0.552,0.192-1.044,0.576-1.476
			c0.384-0.432,0.84-0.648,1.368-0.648c0.552,0,1.021,0.216,1.404,0.648c0.384,0.432,0.575,0.924,0.575,1.476
			c0,0.6-0.191,1.11-0.575,1.53S179.824,49.987,179.272,49.987z M177.617,53.263h3.312v19.296h-3.312V53.263z"/>
		<path fill="#FFAA1E" d="M193.313,72.991c-1.201,0-2.293-0.222-3.276-0.666c-0.984-0.443-1.83-1.104-2.538-1.979
			s-1.26-1.956-1.656-3.24c-0.396-1.283-0.594-2.766-0.594-4.446c0-1.584,0.198-2.987,0.594-4.212
			c0.396-1.224,0.948-2.255,1.656-3.096c0.708-0.84,1.554-1.476,2.538-1.908c0.983-0.432,2.075-0.648,3.276-0.648
			c1.176,0,2.262,0.216,3.258,0.648c0.996,0.432,1.842,1.068,2.538,1.908c0.696,0.841,1.241,1.872,1.638,3.096
			c0.396,1.225,0.594,2.628,0.594,4.212c0,1.681-0.197,3.163-0.594,4.446c-0.396,1.284-0.941,2.364-1.638,3.24
			s-1.542,1.536-2.538,1.979C195.574,72.769,194.488,72.991,193.313,72.991z M193.313,70.292c0.72,0,1.367-0.186,1.943-0.559
			c0.576-0.372,1.057-0.894,1.44-1.565s0.678-1.477,0.882-2.412c0.203-0.937,0.307-1.968,0.307-3.097
			c0-2.255-0.396-4.014-1.188-5.273s-1.921-1.89-3.384-1.89c-1.488,0-2.629,0.63-3.42,1.89c-0.793,1.26-1.188,3.019-1.188,5.273
			c0,1.129,0.103,2.16,0.306,3.097c0.204,0.936,0.498,1.74,0.883,2.412c0.383,0.672,0.863,1.193,1.439,1.565
			C191.908,70.106,192.568,70.292,193.313,70.292z"/>
		<path fill="#FFAA1E" d="M205.624,53.263h3.312v2.34c0.264-0.336,0.57-0.672,0.918-1.008s0.738-0.636,1.17-0.9
			c0.433-0.264,0.912-0.48,1.44-0.648s1.104-0.252,1.728-0.252c1.945,0,3.385,0.57,4.32,1.71c0.937,1.14,1.404,2.646,1.404,4.518
			v13.536h-3.384V59.311c0-1.199-0.271-2.111-0.81-2.736c-0.541-0.623-1.279-0.936-2.215-0.936c-1.08,0-1.992,0.342-2.736,1.026
			c-0.744,0.684-1.355,1.565-1.836,2.646v13.248h-3.312V53.263z"/>
	</g>
	<g>
		<path fill="#FFAA1E" d="M9.377,0C9.377,0,0,0,0,9.375v56.252C0,65.627,0,75,9.377,75h56.249c0,0,9.374,0,9.374-9.373V9.375
			C75,9.375,75,0,65.626,0H9.377z"/>
		<path fill="#191919" d="M65.49,49.609h-13.3c-0.349,0-0.674-0.043-1.001-0.115c-2.117-0.401-3.721-2.234-3.721-4.447V26.47h-9.418
			v18.532c0,0,0.013,0.045,0.013,0.068c0,2.506-2.052,4.539-4.595,4.539H18.675v7.99L9.509,45.178v-0.069l9.237-13.005l-0.071,8.435
			h9.551v-18.55v-0.053c0-2.509,2.054-4.535,4.589-4.535h19.171h0.038h0.039c2.537,0,4.596,2.026,4.596,4.535v18.603h8.832V49.609z"
			/>
		<rect y="0.002" fill="none" width="75" height="74.998"/>
	</g>
</g>
<line fill="none" stroke="#DC2828" stroke-width="20" stroke-miterlimit="10" x1="232.667" y1="-4.667" x2="54.667" y2="93.333"/>
</svg>
